<svg xmlns="http://www.w3.org/2000/svg"
	xmlns:xlink="http://www.w3.org/1999/xlink" width="9000" height="8000">
	<g transform="scale(1)">
		<rect width="3000" height="8000" style="fill:#D18B47" />
		<rect width="3000" height="8000" x="3000" style="fill:#FFCE9E" />
		<g id="Assets">
			<g id="Black">
				<g transform="translate(0 0)">
					<path d="M480 213q-32 8-56 48t-24 97q-66-49-143-49-66 0-111.5 37.5T100 445q0 48 32.5 105.5T234 671v167q0 15 21 28t58 23 85.5 15.5T500 910q54 0 102.5-5.5T688 889t57.5-23 20.5-28V671q69-63 101.5-120.5T900 445q0-61-45-98.5T743 309q-36 0-73 12t-70 37q0-57-24-97t-56-48v-53h40v-40h-40V80h-40v40h-40v40h40v53z" style="fill:#fff"/>
					<path d="M480 213q-32 8-56 48t-24 97q-66-49-143-49-66 0-111.5 37.5T100 445q0 48 32.5 105.5T234 671v167q0 15 21 28t58 23 85.5 15.5T500 910q54 0 102.5-5.5T688 889t57.5-23 20.5-28V671q69-63 101.5-120.5T900 445q0-61-45-98.5T743 309q-36 0-73 12t-70 37q0-57-24-97t-56-48v-53h40v-40h-40V80h-40v40h-40v40h40v53zm20 237q3-20 10.5-34t20.5-30q16-20 16-31 0-37-15.5-64.5T500 263t-31.5 27.5T453 355q0 11 16 31 13 16 20.5 30t10.5 34zm16 155q0-68 19.5-120.5t52-85.5 72-49.5T738 333q57 0 96 31t39 83q0 42-29.5 93.5T751 650q-8 7-10 13t-2 14q-21-20-87.5-33.5T500 630t-151.5 13.5T261 677q0-9-2-14.5T249 650q-63-58-92.5-109.5T127 447q0-52 39-83t96-31q40 0 79 16.5t71.5 49.5 52 85.5T484 605h32zm23 0q62 2 108.5 11t77.5 21q60-56 88-103.5t28-84.5q0-41-29-63.5T739 363q-34 0-69 14.5t-64.5 45T558 499t-19 106zm-78 0q-1-60-19-106t-47.5-76.5-64.5-45-69-14.5q-44 0-73 22.5T159 449q0 37 28 84.5T275 637q31-12 77.5-21T461 605zm278 168q-21-20-87.5-33.5T500 726t-151.5 13.5T261 773v-35q21-20 87.5-33.5T500 691t151.5 13.5T739 738v35zm0 65q-21-20-87.5-33.5T500 791t-151.5 13.5T261 838v-35q21-20 87.5-33.5T500 756t151.5 13.5T739 803v35zM575 376q-25 23-43.5 57T500 515q-12-49-31-83t-44-56q0-65 22.5-101.5T500 238q31 0 53 36.5T575 376z"/>
				</g>
				<g transform="translate(0 1000)">
					<path d="M803 847q0-11-5-26.5T784 783l-1-1q-11-28-17.5-46t-6.5-31q0-18 4-29t15-28q13-20 23.5-42t22.5-60l51-228q25 0 43-18t18-43q0-26-18-43.5T875 196t-43 18-18 43q0 14 6.5 28t17.5 21L710 518l-2-284q23-4 38-21t15-39q0-26-17-43.5T700 113q-26 0-43.5 18T639 174q0 18 10 33.5t25 21.5l-94 274-65-290q21-6 35-23t14-39q0-27-18.5-45.5T500 87q-26 0-45 18.5T436 151q0 23 13.5 40t35.5 22l-65 290-94-274q15-6 25-21.5t10-33.5q0-26-17.5-43.5T300 113q-25 0-43 18t-18 43q0 23 15.5 39.5T292 234l-2 284-128-212q24-18 24-49 0-26-17.5-43.5T125 196q-25 0-43 18t-18 43 18.5 43 42.5 18l51 228q16 50 34 82 5 9 13 21 10 16 14 27t4 29q0 13-6 31.5T217 782q-10 24-15 38.5t-5 26.5q0 13 27.5 25.5T299 894q60 11 134 14 44 2 67 2 28 0 76-2 44-3 99-10 60-9 94-22.5t34-28.5z" style="fill:#fff"/>
					<path d="M500 624q45 0 67 1 56 3 104 9 49 7 74 13l-9 37q-25-7-64-11-32-4-105-8-21-1-67-1t-68 1q-39 1-89 7-41 4-79 12l-9-37q29-7 86-14 46-7 91-8 22-1 68-1zm0 120q-46 0-68 1-35 1-86 7-62 8-96 19l16-45q35-10 79-14 53-6 87-7 22-1 68-1 45 0 67 1 60 3 106 9 34 4 61 12l16 45q-38-11-77-16-56-9-106-10-22-1-67-1zm303 103q0-11-5-26.5T784 783l-1-1q-11-28-17.5-46t-6.5-31q0-18 4-29t15-28q13-20 23.5-42t22.5-60l51-228q25 0 43-18t18-43q0-26-18-43.5T875 196t-43 18-18 43q0 14 6.5 28t17.5 21L710 518l-2-284q23-4 38-21t15-39q0-26-17-43.5T700 113q-26 0-43.5 18T639 174q0 18 10 33.5t25 21.5l-94 274-65-290q21-6 35-23t14-39q0-27-18.5-45.5T500 87q-26 0-45 18.5T436 151q0 23 13.5 40t35.5 22l-65 290-94-274q15-6 25-21.5t10-33.5q0-26-17.5-43.5T300 113q-25 0-43 18t-18 43q0 23 15.5 39.5T292 234l-2 284-128-212q24-18 24-49 0-26-17.5-43.5T125 196q-25 0-43 18t-18 43 18.5 43 42.5 18l51 228q16 50 34 82 5 9 13 21 10 16 14 27t4 29q0 13-6 31.5T217 782q-10 24-15 38.5t-5 26.5q0 13 27.5 25.5T299 894q60 11 134 14 44 2 67 2 28 0 76-2 44-3 99-10 60-9 94-22.5t34-28.5z"/>
				</g>
				<g transform="translate(0 2000)">
					<path d="M711 407q0-62-45-115t-130-95q25-18 25-47 0-25-18-42.5T500 90q-26 0-43.5 17.5T439 150q0 13 7 26t18 21q-85 42-130 95t-45 115q0 32 9 65 15 55 54 118l-34 109q0 18 41 29t109 17q-22 19-46.5 26.5T368 779q-20 0-61-5-43-4-66-4-34 0-64.5 8.5T116 809l32 101q36-25 63-35t54-10q18 0 56 6 33 4 55.5 6.5T431 880q33-4 69-34 36 30 69 34 32 0 57-2.5t53-6.5q38-6 56-6 27 0 54 10t63 35l32-101q-29-22-60-30.5t-65-8.5q-23 0-66 4-41 5-61 5-29 0-53.5-7.5T532 745q73 0 111.5-16t38.5-30l-34-109q39-63 54-118 9-33 9-65z" style="fill:#fff"/>
					<path d="M520 480h-40v-60h-60v-40h60v-60h40v60h60v40h-60v60zm191-73q0-62-45-115t-130-95q25-18 25-47 0-25-18-42.5T500 90q-26 0-43.5 17.5T439 150q0 13 7 26t18 21q-85 42-130 95t-45 115q0 32 9 65 15 55 54 118l-34 109q0 18 41 29t109 17q-22 19-46.5 26.5T368 779q-20 0-61-5-43-4-66-4-34 0-64.5 8.5T116 809l32 101q36-25 63-35t54-10q18 0 56 6 33 4 55.5 6.5T431 880q33-4 69-34 36 30 69 34 32 0 57-2.5t53-6.5q38-6 56-6 27 0 54 10t63 35l32-101q-29-22-60-30.5t-65-8.5q-23 0-66 4-41 5-61 5-29 0-53.5-7.5T532 745q73 0 111.5-16t38.5-30l-34-109q39-63 54-118 9-33 9-65zM500 667q-38 0-78 5t-68 14l9-40q28-7 64-11.5t73-4.5q33 0 71 4.5t66 11.5l9 40q-5-2-6-2-26-7-56.5-12t-83.5-5zm0-69q-32 0-65 4t-64 10l10-40q23-6 54.5-8.5T500 561q27 0 61 2.5t58 8.5l10 40q-30-7-61-10.5t-68-3.5z"/>
				</g>
				<g transform="translate(0 3000)">
					 <path d="M307 226q-5 7-13 16-5 5-8 9-12 15-19 27-1 3-4 11-3 11-6 19-1 7-6 18l-3 6q-3 7-10 17-6 10-8 15-5 13-13 29t-11 24q-1 3-6 13-6 12-10 21-1 2-6 11-8 18-18 31l-2 2q-14 17-23 29.5T129 549q0 3-1 9-2 16-2 23 0 22 6 42 10 23 27 36 10 7 22.5 10t25.5 3q4 0 8-1h6l3 3q7 11 10 14 9 9 25 9 18-3 31-16 7-12 24-29 8-10 22-24l19-15 19-14q14-8 26-15 30-17 42-22 11-5 29-14 14-5 21-9 0 33-13.5 60T438 659q-7 9-24 30-40 48-57 79-15 29-23 61.5t-8 70.5h555q0-78-3-126t-10-100q-1-8-1-12-3-39-12-82.5T833 495q-7-26-18-54.5T791 389q-21-46-56-86-26-33-53-54-20-15-45-29-7-4-10-5-21-11-33-15-33-13-56-16-19-31-30.5-47T475 100l-5 10q-9 22-18 42.5T441 182q-23 0-36 2-5-6-16.5-17T363 144t-29-23.5-27-18.5v124z" style="fill:#fff"/>
					<path d="M303 367q0-36 23-50t66-14q0 35-26.5 49.5T303 367zm119-134q-2 0-10 2-17 2-27 5-22 7-48 21 22-20 45-36 15-10 26-13t24-4zm-115-7q-5 7-13 16-5 5-8 9-12 15-19 27-1 3-4 11-3 11-6 19-1 7-6 18l-3 6q-3 7-10 17-6 10-8 15-5 13-13 29t-11 24q-1 3-6 13-6 12-10 21-1 2-6 11-8 18-18 31l-2 2q-14 17-23 29.5T129 549q0 3-1 9-2 16-2 23 0 22 6 42 10 23 27 36 10 7 22.5 10t25.5 3q4 0 8-1h6l3 3q7 11 10 14 9 9 25 9 18-3 31-16 7-12 24-29 8-10 22-24l19-15 19-14q14-8 26-15 30-17 42-22 11-5 29-14 14-5 21-9 0 33-13.5 60T438 659q-7 9-24 30-40 48-57 79-15 29-23 61.5t-8 70.5h555q0-78-3-126t-10-100q-1-8-1-12-3-39-12-82.5T833 495q-7-26-18-54.5T791 389q-21-46-56-86-26-33-53-54-20-15-45-29-7-4-10-5-21-11-33-15-33-13-56-16-19-31-30.5-47T475 100l-5 10q-9 22-18 42.5T441 182q-23 0-36 2-5-6-16.5-17T363 144t-29-23.5-27-18.5v124zm-61 434-26-14q12-22 19-30t12-8q3 0 9 3l4 2q0 1 1 3v4q0 10-12 28-5 8-7 12zm255-142v-16q0-22 8-33.5t31-13.5q0 38-7 51.5T515 520q-3 0-8-1-4-1-6-1zm350 356h-51q0-68-5-123-4-92-25-188-15-66-37-122.5T682 344q-24-31-47.5-52.5T585 253q-31-23-46-23v-26q81 18 146 85 27 26 48 61t44 85q22 47 38 113 18 75 28 161 4 48 6 92t2 73zM182 584q0-32 9.5-43.5T224 529q0 36-9.5 45.5T182 584z"/>
				</g>
				<g transform="translate(0 4000)">
					<path d="M800 110H665v80h-90v-80H425v80h-90v-80H200v150l90 70v340l-60 40v90h-60v90h660v-90h-60v-90l-60-40V330l90-70V110z" style="fill:#fff"/>
					<path d="M740 830H260v-30h480v30zm-10-90H270v-30h460v30zm-50-60H320v-30h360v30zm0-335H320v-30h360v30zm75-80H245v-30h510v30zm45-155H665v80h-90v-80H425v80h-90v-80H200v150l90 70v340l-60 40v90h-60v90h660v-90h-60v-90l-60-40V330l90-70V110z"/>
				</g>
				<g transform="translate(0 5000)">
					<path d="M800 890q-1-67-14.5-127.5T748 657q-23-45-54.5-71.5T626 555q21-8 37-38 8-15 13.5-33t5.5-32q0-41-15-75-11-24-32-47-24-26-51-40 8-8 17-26 10-26 10-44 0-26-13-49-11-24-38-43-29-18-60-18-30 0-60 18-27 19-38 43-13 23-13 49 0 18 10 44 9 18 17 26-27 14-51 40-21 23-32 47-15 34-15 75 0 14 5.5 32t13.5 33q16 30 37 38-36 4-67.5 30.5T252 657q-24 45-37.5 105.5T200 890h600z"/>
				</g>
				<g transform="translate(0 6000) scale(10)">
					<circle cx="50" cy="50" r="22.222221" style="fill:#000;stroke:none;" />
				</g>
				<g transform="translate(0 7000) scale(10)">
					<path style="fill:#000;stroke:none" d="m 33.333333,28.888889 a 4.4444444,4.4444444 0 0 0 -3.14236,1.302084 4.4444444,4.4444444 0 0 0 0,6.28472 l 33.333331,33.333333 a 4.4444444,4.4444444 0 0 0 6.284722,0 4.4444444,4.4444444 0 0 0 0,-6.284722 L 36.475693,30.190973 a 4.4444444,4.4444444 0 0 0 -3.14236,-1.302084 z" />
					<path style="fill:#000;stroke:none" d="m 66.666666,28.888889 a 4.4444444,4.4444444 0 0 0 -3.142362,1.302084 L 30.190973,63.524304 a 4.4444444,4.4444444 0 0 0 0,6.284722 4.4444444,4.4444444 0 0 0 6.28472,0 L 69.809026,36.475693 a 4.4444444,4.4444444 0 0 0 0,-6.28472 4.4444444,4.4444444 0 0 0 -3.14236,-1.302084 z" />
				</g>
			</g>
			<g id="White" transform="translate(1000 0)">
				<g transform="translate(0 0)">
					<path d="M766 671q69-63 101.5-120.5T900 445q0-61-45-98.5T743 309q-36 0-73 12t-70 37q0-57-24-97t-56-48v-53h40v-40h-40V80h-40v40h-40v40h40v53q-32 8-56 48t-24 97q-66-49-143-49-66 0-111.5 37.5T100 445q0 48 32.5 105.5T234 671v167q0 15 21 28t58 23 85.5 15.5T500 910q54 0 102.5-5.5T688 889t57.5-23 20.5-28V671z" style="fill:#fff"/>
					<path d="M516 605q0-68 19.5-120.5t52-85.5 72-49.5T738 333q57 0 96 31t39 83q0 42-29.5 93.5T751 650q-22-15-83-29.5T516 605zm250 66q69-63 101.5-120.5T900 445q0-61-45-98.5T743 309q-36 0-73 12t-70 37q0-57-24-97t-56-48v-53h40v-40h-40V80h-40v40h-40v40h40v53q-32 8-56 48t-24 97q-66-49-143-49-66 0-111.5 37.5T100 445q0 48 32.5 105.5T234 671v167q0 15 21 28t58 23 85.5 15.5T500 910q54 0 102.5-5.5T688 889t57.5-23 20.5-28V671zM575 376q-25 23-43.5 57T500 515q-12-49-31-83t-44-56q0-65 22.5-101.5T500 238q31 0 53 36.5T575 376zm-91 229q-90 1-151.5 15.5T249 650q-63-58-92.5-109.5T127 447q0-52 39-83t96-31q40 0 79 16.5t71.5 49.5 52 85.5T484 605zm255 143q-21-20-87.5-33.5T500 701t-151.5 13.5T261 748v-71q21-20 87.5-33.5T500 630t151.5 13.5T739 677v71zm0 65q-21-20-87.5-33.5T500 766t-151.5 13.5T261 813v-40q21-20 87.5-33.5T500 726t151.5 13.5T739 773v40zm-478 25q21-20 87.5-33.5T500 791t151.5 13.5T739 838q-21 20-87.5 33.5T500 885t-151.5-13.5T261 838z"/>
				</g>
				<g transform="translate(0 1000)">
					<path d="m710 518-2-284q23-3 38-20 15-18 15-40 0-23-16-41-18-20-45-20-26 0-43 17-18 18-18 44 0 20 11 36 10 13 24 19l-94 274-65-290q17-4 32-19 17-19 17-43 0-27-17-44-20-20-47-20t-47 20q-17 17-17 44 0 24 17 43 15 15 32 19l-65 290-94-274q14-6 24-19 11-16 11-36 0-26-18-44-17-17-43-17-27 0-45 20-16 18-16 41 0 22 15 40 15 17 38 20l-2 284-128-212q13-9 19-24 5-13 5-25 0-27-19-44-17-17-42-17-29 0-47 21-14 17-14 40 0 22 15 40 18 21 46 21l51 228q10 33 19.5 54t19.5 37l7 11q11 17 15 27.5t4 29.5q0 20-16 57l-5 12q-12 28-17.5 44t-5.5 29q0 15 31.5 28t86.5 22q51 7 93 10 44 3 92 3t92-3q42-3 93-10 55-9 86.5-22t31.5-28q0-13-5.5-29T780 774l-5-12q-16-37-16-57 0-19 4-29.5t15-27.5l7-11q10-16 19.5-37t19.5-54l51-228q28 0 46-21 15-18 15-40 0-23-14-40-18-21-47-21-25 0-42 17-19 17-19 44 0 12 5 25 6 15 19 24z" style="fill:#fff"/>
					<path d="M875 293q-17 0-28-13-8-10-8-23 0-15 12-27 9-9 24-9 16 0 27 13 9 11 9 23 0 13-8 23-11 13-28 13zm-175-83q-16 0-27-13-9-11-9-23 0-15 12-27 9-9 24-9t26 11q10 10 10 25 0 13-8 23-11 13-28 13zm-400 0q-17 0-28-13-8-10-8-23 0-15 10-25 11-11 26-11t24 9q12 12 12 27 0 12-9 23-11 13-27 13zm-175 83q-17 0-28-13-8-10-8-23 0-12 9-23 11-13 27-13 15 0 24 9 12 12 12 27 0 13-8 23-11 13-28 13zm375-103q-17 0-29-14-10-12-10-25 0-16 11-27 12-12 28-12t28 12q11 11 11 27 0 13-10 25-12 14-29 14zm0 514q-50 0-95 3-41 2-92 10-2 0-13 2-23 4-34 7 4-14 4-24 0-11-6-28 18-5 48-9 39-6 92-9 30-2 96-2t96 2q53 3 92 9 30 4 48 9-6 17-6 28 0 10 4 24-11-3-34-7-11-2-13-2-51-8-92-10-45-3-95-3zm0 60q-49 0-94 3-54 3-93 10-38 7-75 18l12-34q32-9 63-14 54-8 92-10 45-3 95-3t95 3q38 2 92 10 31 5 63 14l12 34q-37-11-75-18-39-7-93-10-45-3-94-3zm0 116q-49 0-93-3-41-2-92-10-40-7-64-15.5T227 835q0-5 24.5-13.5T314 807q48-7 92-10t94-3q50 0 94 3t92 10q38 6 62.5 14.5T773 835q0 8-24 16.5T685 867q-51 8-92 10-44 3-93 3zm59-346q13 0 35 2h4l87-267v278h2l2 1q6 1 15 3 10 1 13 2l127-213-51 207q-7 24-13 36.5T764 612q-12 19-19 35-34-8-57-11-40-6-92-9-47-3-96-3t-96 3q-52 3-92 9-23 3-57 11-7-16-19-35-10-16-16-28.5T207 547l-51-207 127 213q3-1 13-2 9-2 15-3l2-1h2V269l87 267h4q22-2 35-2l59-287zm151-16-2-284q23-3 38-20 15-18 15-40 0-23-16-41-18-20-45-20-26 0-43 17-18 18-18 44 0 20 11 36 10 13 24 19l-94 274-65-290q17-4 32-19 17-19 17-43 0-27-17-44-20-20-47-20t-47 20q-17 17-17 44 0 24 17 43 15 15 32 19l-65 290-94-274q14-6 24-19 11-16 11-36 0-26-18-44-17-17-43-17-27 0-45 20-16 18-16 41 0 22 15 40 15 17 38 20l-2 284-128-212q13-9 19-24 5-13 5-25 0-27-19-44-17-17-42-17-29 0-47 21-14 17-14 40 0 22 15 40 18 21 46 21l51 228q10 33 19.5 54t19.5 37l7 11q11 17 15 27.5t4 29.5q0 20-16 57l-5 12q-12 28-17.5 44t-5.5 29q0 15 31.5 28t86.5 22q51 7 93 10 44 3 92 3t92-3q42-3 93-10 55-9 86.5-22t31.5-28q0-13-5.5-29T780 774l-5-12q-16-37-16-57 0-19 4-29.5t15-27.5l7-11q10-16 19.5-37t19.5-54l51-228q28 0 46-21 15-18 15-40 0-23-14-40-18-21-47-21-25 0-42 17-19 17-19 44 0 12 5 25 6 15 19 24z"/>
				</g>
				<g transform="translate(0 2000)">
					<path d="M536 197q25-18 25-47 0-25-18-42.5T500 90q-26 0-43.5 17.5T439 150q0 13 7 26t18 21q-84 42-129.5 94.5T289 405q0 41 17 92 19 49 46 93l-34 109q0 15 44 30.5T468 745q-22 19-46.5 26.5T368 779q-20 0-61-5-43-4-66-4-34 0-64.5 8.5T116 809l32 101q36-25 63-35t54-10q18 0 56 6 33 4 55.5 6.5T431 880q33-4 69-34 36 30 69 34 32 0 57-2.5t53-6.5q38-6 56-6 27 0 54 10t63 35l32-101q-29-22-60-30.5t-65-8.5q-23 0-66 4-41 5-61 5-29 0-53.5-7.5T532 745q62 0 106-15.5t44-30.5l-34-109q27-44 46-93 17-51 17-92 0-61-45-113.5T536 197z" style="fill:#fff"/>
					<path d="M536 197q25-18 25-47 0-25-18-42.5T500 90q-26 0-43.5 17.5T439 150q0 13 7 26t18 21q-84 42-129.5 94.5T289 405q0 41 17 92 19 49 46 93l-34 109q0 15 44 30.5T468 745q-22 19-46.5 26.5T368 779q-20 0-61-5-43-4-66-4-34 0-64.5 8.5T116 809l32 101q36-25 63-35t54-10q18 0 56 6 33 4 55.5 6.5T431 880q33-4 69-34 36 30 69 34 32 0 57-2.5t53-6.5q38-6 56-6 27 0 54 10t63 35l32-101q-29-22-60-30.5t-65-8.5q-23 0-66 4-41 5-61 5-29 0-53.5-7.5T532 745q62 0 106-15.5t44-30.5l-34-109q27-44 46-93 17-51 17-92 0-61-45-113.5T536 197zm144 213q0 37-15 82-11 31-25.5 55T620 576q-70-14-120-14-49 0-120 14-5-5-19.5-29T335 492q-15-45-15-82 0-27 7.5-51t26.5-48 55-49 91-52q55 26 91 51.5t55 49.5 26.5 48 7.5 51zM500 751q28 33 55 45.5t58 12.5q16 0 54-6 44-6 69-6 57 0 112 25l-13 48q-50-34-112-34-24 0-68 6-41 6-60 6-28 0-51-9.5T500 805q-21 24-44 33.5t-51 9.5q-19 0-59-5-44-7-67-7-30 0-58 8t-56 28l-13-50q55-25 112-25 25 0 69 6 38 6 55 6 30 0 57-13t55-45zm0-121q-47 0-81.5 3.5T355 650l15-44q34-11 61-14.5t69-3.5 69 3.5 61 14.5l15 44q-29-13-63.5-16.5T500 630zm-2 31q21 0 48.5 1.5t52.5 5 40.5 9T655 688q0 13-40.5 20.5T498 716t-116.5-7.5T341 688q0-6 15.5-11t41.5-9 52.5-5.5T498 661zm2-541q11 0 20.5 8t10.5 22q0 12-8 21t-23 9q-31-2-31-30 0-12 10-21t21-9zm20 360v-60h60v-40h-60v-60h-40v60h-60v40h60v60h40z"/>
				</g>
				<g transform="translate(0 3000)">
					<path d="M307 225q-5 7-13 16-5 5-8 9-12 15-18 28-2 4-7 15t-9.5 21-11 25.5T230 364q-3 9-10 21l-2 5q-3 9-10 22-6 12-10 22-2 5-8 15-6 11-9 17-5 12-15 26-3 3-6 7t-6 7q-10 10-20 28-4 8-8 31v7q-1 5-1 7 0 10 2 23 3 24 14 38 8 10 18 18 15 10 40 14 8 0 17-1h5q7 12 12 17 9 9 25 9 11-2 16-5 8-5 15-12 3-4 8-9 4-5 5-6 14-17 24-27 8-8 22-20l2-2q2-2 12-9t12-8q6-3 17-10 10-6 16-9 7-4 18-10 10-6 16-8 7-2 18-8 4-2 5-3 10-3 28-12 0 27-10 51.5T453 640q-9 13-31 39-38 45-54 71-20 33-31.5 69.5T325 900h556q0-58-2-84-2-48-4-72-1-22-5-54l-3-27q-2-31-13-77-9-51-21-90-8-32-21-61-9-23-21-46-8-17-20-36-22-39-59-76-30-30-45-38-17-13-48-28-17-10-37-16t-43-11q-5-10-12-22-1-1-2-4-3-5-9-13-10-15-21-26-3-5-12-12-5-4-8-7-6 11-13 30-2 4-5 12-1 4-6 16-5 11-9 24-23 0-36 2-3-4-9-10l-10-10q-6-5-11-10-15-15-33-27-10-8-16-12l-3-2q-15-11-22-13l1 30 1 22 1 30 1 18z" style="fill:#fff"/>
					<path d="M303 367q36 0 62.5-14.5T392 303q-43 0-66 14t-23 50zM182 584q22 0 29.5-7.5T219 539q-20 0-28.5 7.5T182 584zm188-343q12-12 28-21 9-5 15.5-6.5T435 212l-4 20h30q1-21 5-34.5t17-41.5l2-4q3 4 8 12 13 21 20 35.5t10 32.5h22v-18q54 12 98 43 37 26 67 65 25 34 36 57 25 46 43 106 21 70 30 142 7 53 11 127 1 60 1 116H356q1-28 14.5-62.5T398 753q12-18 41-53 29-34 41-52 21-30 33-59.5t12-63.5q3-24 6-34t13-28l-26-13q-10 15-13 26t-4 28q-8 4-43 19-46 21-70 34-44 23-79 55-20 18-46 51-5 7-11 7-9 0-9-12v-3q1-2 1-4l6-7q10-11 17-20l-21-13q-5 8-8 12t-10 10l-2 3q-8 5-18 5-5 0-14-2-3-1-4-1-14-2-23-16t-10-35q0-23 11-52 25-30 38-52 11-17 21-38 9-18 25-52 7-16 12-27 6-16 14-34t16-35l8-18q13-24 36-47 5-4 6-5l4-3-5-19-7 4q0-22-1-46l-1-8q17 14 24.5 21t13.5 12q11 10 13 12 0 1-3 5-5 6-8 11 0 1-1 5-3 12-3 20zm-63-16q-5 7-13 16-5 5-8 9-12 15-18 28-2 4-7 15t-9.5 21-11 25.5T230 364q-3 9-10 21l-2 5q-3 9-10 22-6 12-10 22-2 5-8 15-6 11-9 17-5 12-15 26-3 3-6 7t-6 7q-10 10-20 28-4 8-8 31v7q-1 5-1 7 0 10 2 23 3 24 14 38 8 10 18 18 15 10 40 14 8 0 17-1h5q7 12 12 17 9 9 25 9 11-2 16-5 8-5 15-12 3-4 8-9 4-5 5-6 14-17 24-27 8-8 22-20l2-2q2-2 12-9t12-8q6-3 17-10 10-6 16-9 7-4 18-10 10-6 16-8 7-2 18-8 4-2 5-3 10-3 28-12 0 27-10 51.5T453 640q-9 13-31 39-38 45-54 71-20 33-31.5 69.5T325 900h556q0-58-2-84-2-48-4-72-1-22-5-54l-3-27q-2-31-13-77-9-51-21-90-8-32-21-61-9-23-21-46-8-17-20-36-22-39-59-76-30-30-45-38-17-13-48-28-17-10-37-16t-43-11q-5-10-12-22-1-1-2-4-3-5-9-13-10-15-21-26-3-5-12-12-5-4-8-7-6 11-13 30-2 4-5 12-1 4-6 16-5 11-9 24-23 0-36 2-3-4-9-10l-10-10q-6-5-11-10-15-15-33-27-10-8-16-12l-3-2q-15-11-22-13l1 30 1 22 1 30 1 18z"/>
				</g>
				<g transform="translate(0 4000)">
					<path d="M200 140v120l90 70v340l-60 40v90h-60v90h660v-90h-60v-90l-60-40V330l90-70V110H665v65h-90v-65H425v65h-90v-65H200v30z" style="fill:#fff"/>
					<path d="M200 140v120l90 70v340l-60 40v90h-60v90h660v-90h-60v-90l-60-40V330l90-70V110H665v65h-90v-65H425v65h-90v-65H200v30zm0 720v-30h600v30H200zm540-120v60H260v-60h480zm-10-30H270l50-30h360zM320 345h360v305H320V345zm0-30-75-50h510l-75 50H320zm-90-80v-95h75v65h150v-65h90v65h150v-65h75v95H230z"/>
				</g>
				<g transform="translate(0 5000)">
					<path d="M800 890q-1-67-14.5-127.5T748 657q-23-45-54.5-71.5T626 555q21-8 37-38 8-15 13.5-33t5.5-32q0-41-15-75-11-24-32-47-24-26-51-40 8-8 17-26 10-26 10-44 0-26-13-49-11-24-38-43-29-18-60-18-30 0-60 18-27 19-38 43-13 23-13 49 0 18 10 44 9 18 17 26-27 14-51 40-21 23-32 47-15 34-15 75 0 14 5.5 32t13.5 33q16 30 37 38-36 4-67.5 30.5T252 657q-24 45-37.5 105.5T200 890h600z" style="fill:#fff"/>
					<path d="M800 890q-1-67-14.5-127.5T748 657q-23-45-54.5-71.5T626 555q21-8 37-38 8-15 13.5-33t5.5-32q0-41-15-75-11-24-32-47-24-26-51-40 8-8 17-26 10-26 10-44 0-26-13-49-11-24-38-43-29-18-60-18-30 0-60 18-27 19-38 43-13 23-13 49 0 18 10 44 9 18 17 26-27 14-51 40-21 23-32 47-15 34-15 75 0 14 5.5 32t13.5 33q16 30 37 38-36 4-67.5 30.5T252 657q-24 45-37.5 105.5T200 890h600zM500 143q16 2 19.5 2.5T533 149l6 4q10 6 12.5 8t11.5 12q7 11 10 20t5 27q0 15-7 36-2 4-3 8l-6 6-2 2-6 8-3 2q-11 8-11 11 0 4 13 9 19 7 42 27 3 2 8 6 10 10 17 19t14 23q15 30 15 75-3 16-6 26t-9 24l-1 4-6 8q-5 7-7.5 9.5T607 534q-26 15-26 23 0 7 14 14 37 4 69.5 29.5T721 669q22 39 34 87.5T768 860H232q1-55 13-103.5t34-87.5q25-43 57-68.5t69-29.5q14-7 14-14 0-8-26-23-10-8-12.5-10.5T373 514l-6-8-1-4q-7-15-9.5-24.5T351 452q0-45 15-75 7-14 14-23t17-19q5-4 8-6 23-20 42-27 13-5 13-9 0-3-11-11l-3-2q-5-6-6-7.5t-2-2.5l-6-6q-1-4-3-8-7-21-7-36 2-18 5-27t10-20l1-1q8-9 11.5-11.5T467 149q10-3 13.5-3.5T500 143z"/>
				</g>
				<g transform="translate(0 6000) scale(10)">
					<circle cx="50" cy="50" r="22.222221" style="fill:#fff;stroke:none;" />
				</g>
				<g transform="translate(0 7000) scale(10)">
					<path style="fill:#fff;stroke:none" d="m 33.333333,28.888889 a 4.4444444,4.4444444 0 0 0 -3.14236,1.302084 4.4444444,4.4444444 0 0 0 0,6.28472 l 33.333331,33.333333 a 4.4444444,4.4444444 0 0 0 6.284722,0 4.4444444,4.4444444 0 0 0 0,-6.284722 L 36.475693,30.190973 a 4.4444444,4.4444444 0 0 0 -3.14236,-1.302084 z" />
					<path style="fill:#fff;stroke:none" d="m 66.666666,28.888889 a 4.4444444,4.4444444 0 0 0 -3.142362,1.302084 L 30.190973,63.524304 a 4.4444444,4.4444444 0 0 0 0,6.284722 4.4444444,4.4444444 0 0 0 6.28472,0 L 69.809026,36.475693 a 4.4444444,4.4444444 0 0 0 0,-6.28472 4.4444444,4.4444444 0 0 0 -3.14236,-1.302084 z" />
				</g>
			</g>
			<use href="#White" xlink:href="#White" x="1000" y="0" />
			<use href="#Black" xlink:href="#Black" x="2000" y="0" style="opacity:0.5" />
		</g>
		<use href="#Assets" xlink:href="#Assets" x="3000" y="0" />
		<use href="#Assets" xlink:href="#Assets" x="6000" y="0" />
	</g>
</svg>