<svg xmlns="http://www.w3.org/2000/svg"
	xmlns:xlink="http://www.w3.org/1999/xlink" width="18432" height="16384">
	<g transform="scale(1)">
		<rect width="6144" height="16384" style="fill:#D18B47" />
		<rect width="6144" height="16384" x="6144" style="fill:#FFCE9E" />
		<rect width="6144" height="16384" x="12288" style="fill:none" />
		<g id="Assets">
			<g id="Black">
				<g transform="translate(0 0)">
					<path d="m397 1770 66-244-33-187q-1 0-3-4-5-7-28.5-18.5T344 1277q-44-37-68.5-60t-44.5-50q-61-84-68-203-10-115 93-229 104-114 281-107 66 4 155 32 29 12 59.5 23.5T812 707q16 8 28 16-5-21-5-42 0-78 55.5-133t133.5-56q78 0 133 55.5t55 132.5q0 16-4 42 14-9 27-15 46-20 121-47 86-29 155-33 177-8 280 107 101 114 94 229-8 119-69 203-20 27-45 50.5t-67 59.5q-33 28-56 39.5t-27 18.5q-1 2-2 3t-1 2l-32 188 66 247q-50 45-224 74t-402 29q-232 0-408-30.5T397 1770Z" style="fill:#fff"/>
					<path d="M1133 1183q0-29 6.5-82.5t20.5-83.5q37-81 106-150 20-20 86-54 65-32 139-32 56 0 111.5 19.5T1686 860q25 34 25 110 0 60-49 112-32 33-69 66.5t-71 78.5q-58-20-161.5-31t-227.5-13Zm-73 78q172 3 282 17t198 33q55-54 122-103t94-84q48-65 48-162 0-89-43-149-77-113-235-113-92 0-192 40-91 36-132 78-85 82-124 216-15 46-16.5 117t-1.5 110Zm442 274 16-101q-184-51-490-51-308 0-496 52l15 101q189-49 481-49 291 0 474 48Zm42 198-30-118q-195-45-490-45-292 0-488 45l-32 119q190-58 521-58 159 0 295 16t224 41Zm-1147 37 66-244-33-187q-1 0-3-4-5-7-28.5-18.5T344 1277q-44-37-68.5-60t-44.5-50q-61-84-68-203-10-115 93-229 104-114 281-107 66 4 155 32 29 12 59.5 23.5T812 707q16 8 28 16-5-21-5-42 0-78 55.5-133t133.5-56q78 0 133 55.5t55 132.5q0 16-4 42 14-9 27-15 46-20 121-47 86-29 155-33 177-8 280 107 101 114 94 229-8 119-69 203-20 27-45 50.5t-67 59.5q-33 28-56 39.5t-27 18.5q-1 2-2 3t-1 2l-32 188 66 247q-50 45-224 74t-402 29q-232 0-408-30.5T397 1770Zm591-510q0-40-2-110.5T971 1032q-41-134-124-216-43-42-132-78-102-40-193-40-158 0-234 113-43 60-43 150 0 98 48 161 25 36 96 89t120 98q87-19 196.5-33t282.5-16Zm36-251q7-28 12-39 10-39 23-66 6-17 17.5-39.5T1101 813q8-17 17-41.5t18-48.5q8-20 8-43 0-49-35-83.5t-85-34.5q-119 0-119 119 0 23 8 43 22 65 34 90 13 29 24 51.5t19 39.5q13 33 22 66 2 6 12 38Zm36-650-1 130h-71V358h-83q-34 0-34-33v-1q0-33 34-33h83v-85q0-35 36-35 35 0 35 35v85h86q33 0 33 33v1q0 33-33 33l-85 1Zm-148 824q-125 2-228.5 13T523 1227q-30-37-69.5-74.5T384 1082q-50-51-50-112 0-75 25-110 27-40 83-59.5T555 781q72 0 138 32 65 34 86 54 68 69 106 150 13 30 19.5 83.5t7.5 82.5Zm112-345q-2-10-5-17-6-20-10-29-3-7-8-17.5T991 752q-3-7-7.5-18.5T976 712q-3-9-3-19 0-53 51-53 53 0 53 52 0 13-4 19-14 38-15 41-15 30-19 39-7 16-9 29-3 6-4 10.5t-2 7.5Z"/>
				</g>
				<g transform="translate(0 2048)">
					<path d="m1575 1522 65 243q-49 43-220 72t-394 29q-227 0-399-30t-217-75l63-240-28-157-88-153-85-622 49-19 274 462 6-550 68-12 209 553 112-595h69l112 593 207-551 69 12 6 550 275-463 47 22-83 619-89 153-28 159Z" style="fill:#fff"/>
					<path d="m1537 1345 51-90q-83-30-233.5-49.5T1022 1186q-178 0-326 18.5T463 1253l50 91q84-25 218-36t293-11q159 0 294 11t219 37Zm277-758q-57 0-97-39.5t-40-96.5q0-56 40-96.5t97-40.5q56 0 96 40.5t40 96.5q0 57-40 96.5t-96 39.5Zm-1578 0q-57 0-96.5-39.5T100 451q0-56 39.5-96.5T236 314q57 0 97 40.5t40 96.5q0 57-40 96.5T236 587Zm1208-110q-57 0-96.5-39.5T1308 341q0-56 39.5-96t96.5-40q57 0 97 40t40 96q0 57-40 96.5t-97 39.5Zm-840 0q-57 0-97-39.5T467 341q0-56 40-96t97-40q56 0 96 40t40 96q0 57-40 96.5T604 477Zm971 1045 65 243q-49 43-220 72t-394 29q-227 0-399-30t-217-75l63-240-28-157-88-153-85-622 49-19 274 462 6-550 68-12 209 553 112-595h69l112 593 207-551 69 12 6 550 275-463 47 22-83 619-89 153-28 159Zm-31 211-30-118q-195-45-490-45-292 0-488 45l-32 119q190-58 521-58 159 0 295 16t224 41Zm-42-198 16-101q-184-51-490-51-308 0-496 52l15 101q189-49 481-49 291 0 474 48ZM1024 427q-57 0-96.5-40T888 290q0-56 39.5-96t96.5-40q56 0 96.5 40t40.5 96q0 57-40.5 97t-96.5 40Z"/>
				</g>
				<g transform="translate(0 4096)">
					<path d="M1024 1656q-14 57-34 79t-53 46q-36 25-85 42.5t-109 8.5l-281-39q-17-2-30.5 0t-25.5 2q-21 0-53.5 9.5T302 1832l-97-159q18-20 32-28t33-17q58-27 124-33 28-2 55-1t56-2q54 9 108.5 16.5T723 1624q60 0 81-12 11-6 35-22t48-47q-53-6-108-20.5t-97-30.5l104-258q-78-45-109-72.5t-49-63.5q-26-46-33.5-89t-6.5-77q1-60 28.5-132.5T720 670q63-48 123-99t119-119q-74-38-74-121 0-56 39.5-96t96.5-40q56 0 96 40t40 96q0 82-74 121 58 68 117.5 119t124.5 99q75 57 102 129.5t29 132.5q0 34-7 77t-32 89q-20 36-50.5 63.5T1262 1234l104 258q-44 16-99 30.5t-106 20.5q23 31 47 47t36 22q21 12 81 12 54-8 108.5-15.5T1543 1592q27 3 54.5 2t56.5 1q64 6 124 33 18 9 32.5 17t32.5 28l-98 159q-18-18-50.5-27.5t-52.5-9.5q-13 0-26.5-2t-30.5 0l-280 39q-60 9-111.5-8t-84.5-45q-33-27-52.5-46.5T1024 1656Z" style="fill:#fff"/>
					<path d="m1290 1466-42-102q-102-22-224-22-121 0-222 22l-42 101q124-31 264-31 138 0 266 32Zm-84-206-29-70v-27q-76-11-153-11-75 0-152 11l-1 27-27 70q85-15 180-15 96 0 182 15Zm-124 378h89q-40-30-80-95h-32q0 49 23 95Zm-207 0h90q23-49 23-95h-32q-39 64-81 95Zm149 18q-14 57-34 79t-53 46q-36 25-85 42.5t-109 8.5l-281-39q-17-2-30.5 0t-25.5 2q-21 0-53.5 9.5T302 1832l-97-159q18-20 32-28t33-17q58-27 124-33 28-2 55-1t56-2q54 9 108.5 16.5T723 1624q60 0 81-12 11-6 35-22t48-47q-53-6-108-20.5t-97-30.5l104-258q-78-45-109-72.5t-49-63.5q-26-46-33.5-89t-6.5-77q1-60 28.5-132.5T720 670q63-48 123-99t119-119q-74-38-74-121 0-56 39.5-96t96.5-40q56 0 96 40t40 96q0 82-74 121 58 68 117.5 119t124.5 99q75 57 102 129.5t29 132.5q0 34-7 77t-32 89q-20 36-50.5 63.5T1262 1234l104 258q-44 16-99 30.5t-106 20.5q23 31 47 47t36 22q21 12 81 12 54-8 108.5-15.5T1543 1592q27 3 54.5 2t56.5 1q64 6 124 33 18 9 32.5 17t32.5 28l-98 159q-18-18-50.5-27.5t-52.5-9.5q-13 0-26.5-2t-30.5 0l-280 39q-60 9-111.5-8t-84.5-45q-33-27-52.5-46.5T1024 1656ZM899 911l88 1v85q0 37 37 37t37-37v-86h90q35 0 35-36t-35-36h-90v-90q0-37-37-37t-37 37v90h-88q-35 0-35 36t35 36Z"/>
				</g>
				<g transform="translate(0 6144)">
					<path d="M1079 351q157 10 291 81t228 182q66 78 124.5 188t93.5 233q40 143 50.5 300.5T1877 1627v218H647q-9 0-8.5-49t6.5-79q4-24 19-68t50-107q16-32 76-93.5T928 1306q45-46 70.5-116t21.5-127q-37 30-81 49-212 76-307 220-7 9-45 81-20 38-34 52-19 19-55 21-56 3-87-54-42 12-75 10-56-21-81-45-51-51-66.5-102T173 1185q0-84 104-222 122-159 130-242 0-36 7-81 6-31 25-60 13-20 17.5-27.5T473 530q9-12 15-18.5t15-17.5q11-13 28-30-53-146-43-301 199 71 334 223 33-113 130-183 80 56 127 148Z" style="fill:#fff"/>
					<path d="M490 1365q4-9 13-27 17-42 17-50-2-28-29-28-20 0-47 57-4 8-12 14-27 28 8 47 32 19 50-13Zm590-371q70-92 69-205-4-33-38-33-46 0-36 34 3 55-11 91-23 57-51 85-15 30 18 44 32 15 49-16ZM819 506q-5-36 2-78-60 12-113 56-32 17-15 47 17 31 47 10 21-11 38.5-20.5T819 506Zm796 1268h141q-1 0 2-54.5t3-117.5q1-125 0-258.5t-36-266.5q-34-128-75-218.5T1561 702q-72-108-196-183t-259-98q4 23 2.5 47t.5 46q97 33 183 82t126 106q48 66 89 156.5t75 218.5q34 133 35 266.5t1 258.5q0 63-3 117.5t0 54.5ZM1079 351q157 10 291 81t228 182q66 78 124.5 188t93.5 233q40 143 50.5 300.5T1877 1627v218H647q-9 0-8.5-49t6.5-79q4-24 19-68t50-107q16-32 76-93.5T928 1306q45-46 70.5-116t21.5-127q-37 30-81 49-212 76-307 220-7 9-45 81-20 38-34 52-19 19-55 21-56 3-87-54-42 12-75 10-56-21-81-45-51-51-66.5-102T173 1185q0-84 104-222 122-159 130-242 0-36 7-81 6-31 25-60 13-20 17.5-27.5T473 530q9-12 15-18.5t15-17.5q11-13 28-30-53-146-43-301 199 71 334 223 33-113 130-183 80 56 127 148Zm-675 836q29-20 6-48-24-23-53-4-61 40-65 105 1 33 39 31 36-3 35-37 8-32 38-47Zm252-498 22-11q30-12 19-44-12-30-46-20-118 43-163 158-7 33 24 45 31 10 42-22 8-17 12-22 11 9 29 12 61 10 71-54 3-22-10-42Z"/>
				</g>
				<g transform="translate(0 8192)">
					<path d="M1161 205v137h170V205h274v375l-222 171v478l170 170v205h153v239H341v-239h153v-205l171-170V751L443 580V205h273v137h171V205h274Z" style="fill:#fff"/>
					<path d="M1161 205v137h170V205h274v375l-222 171v478l170 170v205h153v239H341v-239h153v-205l171-170V751L443 580V205h273v137h171V205h274Zm323 1383H564v102h920v-102Zm51-1092H512v46l73 55h879l71-55v-46Zm-161 169H674l60 47v57h580v-57l60-47Zm-60 546H734v46l-60 58h700l-60-58v-46Zm124 172H610l-46 43v58h920v-58l-46-43Z"/>
				</g>
				<g transform="translate(0 10240)">
					<path d="M1564 1843H484q-40-100-40-209 0-185 105-332t270-210q-71-33-115.5-99.5T659 842q0-105 70-182t172-89q-81-61-81-161 0-84 59.5-144t144.5-60q84 0 144 60t60 144q0 100-81 161 102 12 172 89t70 182q0 84-45.5 150.5T1228 1092q165 63 270 210t105 332q0 108-39 209Z"/>
				</g>
				<g transform="translate(0 12288)">
					<circle cx="1024" cy="1024" r="455" />
				</g>
				<g transform="translate(0 14336)">
					<path d="M682.66665 591.64446a91.02222 91.02222 0 0 0-64.35551 26.66668 91.02222 91.02222 0 0 0 0 128.71107l682.66666 682.66669a91.02222 91.02222 0 0 0 128.7111 0 91.02222 91.02222 0 0 0 0-128.7111L747.02221 618.31114a91.02222 91.02222 0 0 0-64.35556-26.66668z" />
					<path d="M1365.3334 591.64446a91.02222 91.02222 0 0 0-64.3556 26.66668L618.31114 1300.9778a91.02222 91.02222 0 0 0 0 128.7111 91.02222 91.02222 0 0 0 128.71107 0l682.66669-682.66669a91.02222 91.02222 0 0 0 0-128.71107 91.02222 91.02222 0 0 0-64.3555-26.66668z"/>
				</g>
			</g>
			<g id="White" transform="translate(2048 0)">
				<g transform="translate(0 0)">
					<path d="m397 1770 66-244-33-187q-1 0-3-4-5-7-28.5-18.5T344 1277q-44-37-68.5-60t-44.5-50q-61-84-68-203-10-115 93-229 104-114 281-107 66 4 155 32 29 12 59.5 23.5T812 707q16 8 28 16-5-21-5-42 0-78 55.5-133t133.5-56q78 0 133 55.5t55 132.5q0 16-4 42 14-9 27-15 46-20 121-47 86-29 155-33 177-8 280 107 101 114 94 229-8 119-69 203-20 27-45 50.5t-67 59.5q-33 28-56 39.5t-27 18.5q-1 2-2 3t-1 2l-32 188 66 247q-50 45-224 74t-402 29q-232 0-408-30.5T397 1770Z" style="fill:#fff"/>
					<path d="m499 1317 25 148q190-48 504-48 308 0 497 46l25-147q-201-53-526-53-327 0-525 54Zm-102 453 66-244-33-187q-1 0-3-4-5-7-28.5-18.5T344 1277q-44-37-68.5-60t-44.5-50q-61-84-68-203-10-115 93-229 104-114 281-107 66 4 155 32 29 12 59.5 23.5T812 707q16 8 28 16-5-21-5-42 0-78 55.5-133t133.5-56q78 0 133 55.5t55 132.5q0 16-4 42 14-9 27-15 46-20 121-47 86-29 155-33 177-8 280 107 101 114 94 229-8 119-69 203-20 27-45 50.5t-67 59.5q-33 28-56 39.5t-27 18.5q-1 2-2 3t-1 2l-32 188 66 247q-50 45-224 74t-402 29q-232 0-408-30.5T397 1770Zm1147-127-30-115q-198-44-490-44-291 0-489 44l-32 116q191-56 522-56 329 0 519 55Zm26 94q-193-78-542-78-362 0-548 80 176 70 545 70 176 0 321-19.5t224-52.5Zm-581-542q-1-39-3-77.5t-15-85.5q-41-134-124-216-43-42-132-78-102-40-193-40-158 0-234 113-43 60-43 150 0 98 48 161 29 37 74 74t84 67q175-63 538-68Zm35-186q7-28 12-39 10-39 23-66 6-17 17.5-39.5T1101 813q8-17 17-41.5t18-48.5q8-20 8-43 0-49-35-83.5t-85-34.5q-119 0-119 119 0 23 8 43 22 65 34 90 13 29 24 51.5t19 39.5q13 33 22 66 2 6 12 38Zm34 186q172 2 315 20.5t224 46.5q38-30 83-66.5t75-74.5q48-61 48-161 0-90-43-150-77-112-234-112-94 0-193 39-87 35-132 78-84 84-124 216-14 47-16.5 85.5t-2.5 78.5Zm2-836-1 130h-71V358h-83q-34 0-34-33v-1q0-33 34-33h83v-85q0-35 36-35 35 0 35 35v85h86q33 0 33 33v1q0 33-33 33l-85 1Z"/>
				</g>
				<g transform="translate(0 2048)">
					<path d="M1024 427q-57 0-96.5-40T888 290q0-56 39.5-96t96.5-40q56 0 96.5 40t40.5 96q0 57-40.5 97t-96.5 40Zm-420 50q-57 0-97-39.5T467 341q0-56 40-96t97-40q56 0 96 40t40 96q0 57-40 96.5T604 477Zm840 0q-57 0-96.5-39.5T1308 341q0-56 39.5-96t96.5-40q57 0 97 40t40 96q0 57-40 96.5t-97 39.5ZM236 517q67 0 67-66 0-67-67-67-66 0-66 67 0 66 66 66Zm1578 0q66 0 66-66 0-67-66-67-67 0-67 67 0 66 67 66Zm-239 1005 65 243q-49 43-220 72t-394 29q-227 0-399-30t-217-75l63-240-28-157-88-153-85-622 49-19 274 462 6-550 68-12 209 553 112-595h69l112 593 207-551 69 12 6 550 275-463 47 22-83 619-89 153-28 159Z" style="fill:#fff"/>
					<path d="M1024 427q-57 0-96.5-40T888 290q0-56 39.5-96t96.5-40q56 0 96.5 40t40.5 96q0 57-40.5 97t-96.5 40Zm0-70q67 0 67-67 0-66-67-66-66 0-66 66 0 67 66 67Zm492 1103 17-96q-193-49-505-49-320 0-511 50l15 96q195-46 496-46 299 0 488 45Zm42-156 65-115q-48 19-98 19-134 0-214-109-60 50-134 50-96 0-153-75-64 70-153 70-72 0-132-49-84 107-217 107-51 0-101-19l70 120q194-56 533-56 345 0 534 57Zm-448-239-85-489-85 483q3-2 14-10 23-45 70-45 51 0 66 45 6 6 20 16Zm277 19V621l-165 454q19-7 32-18 20-25 54-25 40 0 64 35 3 4 7 8.5t8 8.5Zm-562-14L661 621v457q3-4 9-10 20-42 66-42 38 0 62 32l27 12Zm-254 56L356 755l55 338q57 40 111 40 21 0 49-7Zm1123-372-220 377q23 7 51 7 61 0 114-38l55-346Zm-160 883-30-113q-196-43-480-43-281 0-479 43l-31 114q186-56 511-56 317 0 509 55Zm41-115 65 243q-49 43-220 72t-394 29q-227 0-399-30t-217-75l63-240-28-157-88-153-85-622 49-19 274 462 6-550 68-12 209 553 112-595h69l112 593 207-551 69 12 6 550 275-463 47 22-83 619-89 153-28 159Zm-16 207q-183-76-531-76-355 0-537 78 175 69 534 69 172 0 314.5-19t219.5-52ZM604 477q-57 0-97-39.5T467 341q0-56 40-96t97-40q56 0 96 40t40 96q0 57-40 96.5T604 477Zm0-70q66 0 66-66t-66-66q-67 0-67 66t67 66Zm840 0q67 0 67-66t-67-66q-66 0-66 66t66 66Zm0 70q-57 0-96.5-39.5T1308 341q0-56 39.5-96t96.5-40q57 0 97 40t40 96q0 57-40 96.5t-97 39.5ZM236 587q-57 0-96.5-39.5T100 451q0-56 39.5-96.5T236 314q57 0 97 40.5t40 96.5q0 57-40 96.5T236 587Zm0-70q67 0 67-66 0-67-67-67-66 0-66 67 0 66 66 66Zm1578 0q66 0 66-66 0-67-66-67-67 0-67 67 0 66 67 66Zm0 70q-57 0-97-39.5t-40-96.5q0-56 40-96.5t97-40.5q56 0 96 40.5t40 96.5q0 57-40 96.5t-96 39.5Z"/>
				</g>
				<g transform="translate(0 4096)">
					<path d="M1024 1656q-14 57-34 79t-53 46q-36 25-85 42.5t-109 8.5l-281-39q-17-2-30.5 0t-25.5 2q-21 0-53.5 9.5T302 1832l-97-159q18-20 32-28t33-17q58-27 124-33 28-2 55-1t56-2q54 9 108.5 16.5T723 1624q60 0 81-12 11-6 35-22t48-47q-53-6-108-20.5t-97-30.5l104-258q-78-45-109-72.5t-49-63.5q-26-46-33.5-89t-6.5-77q1-60 28.5-132.5T720 670q63-48 123-99t119-119q-74-38-74-121 0-56 39.5-96t96.5-40q56 0 96 40t40 96q0 82-74 121 58 68 117.5 119t124.5 99q75 57 102 129.5t29 132.5q0 34-7 77t-32 89q-20 36-50.5 63.5T1262 1234l104 258q-44 16-99 30.5t-106 20.5q23 31 47 47t36 22q21 12 81 12 54-8 108.5-15.5T1543 1592q27 3 54.5 2t56.5 1q64 6 124 33 18 9 32.5 17t32.5 28l-98 159q-18-18-50.5-27.5t-52.5-9.5q-13 0-26.5-2t-30.5 0l-280 39q-60 9-111.5-8t-84.5-45q-33-27-52.5-46.5T1024 1656Z" style="fill:#fff"/>
					<path d="M988 991v-81l-83-1q-34 0-34-34t34-34h83v-86q0-35 36-35 35 0 35 35v86h86q33 0 33 34t-33 34h-86v82q0 36-35 36-36 0-36-36Zm36 497q68 0 132.5-11.5T1281 1449q-117-31-257-31-142 0-257 31 58 16 123 27.5t134 11.5Zm0-1089q68 0 68-68t-68-68q-68 0-68 68t68 68Zm0 949q117 0 225 23l-48-123q-88-14-177-14-91 0-178 14l-48 123q107-23 226-23Zm0-182q97 0 186 15 98-35 142-109 38-64 38-141 0-46-23-101.5T1292 729q-59-49-129-107.5T1024 485q-70 78-140 136.5T756 729q-53 45-75.5 100.5T658 931q0 77 37 141 43 74 143 109 88-15 186-15Zm-36 377h-32q-56 90-107 113-24 12-53 22t-67 10q-7 0-107-16-48-7-76-15t-44-10q-57-7-133 6-46 8-86 29l48 78q12-12 31.5-15.5t35.5-7.5q42-7 80-2 13 3 51 7.5t101 14.5q75 11 102 11 105 0 161-40 34-26 64.5-72.5T988 1543Zm36 113q-14 57-34 79t-53 46q-36 25-85 42.5t-109 8.5l-281-39q-17-2-30.5 0t-25.5 2q-21 0-53.5 9.5T302 1832l-97-159q18-20 32-28t33-17q58-27 124-33 28-2 55-1t56-2q54 9 108.5 16.5T723 1624q60 0 81-12 11-6 35-22t48-47q-53-6-108-20.5t-97-30.5l104-258q-78-45-109-72.5t-49-63.5q-26-46-33.5-89t-6.5-77q1-60 28.5-132.5T720 670q63-48 123-99t119-119q-74-38-74-121 0-56 39.5-96t96.5-40q56 0 96 40t40 96q0 82-74 121 58 68 117.5 119t124.5 99q75 57 102 129.5t29 132.5q0 34-7 77t-32 89q-20 36-50.5 63.5T1262 1234l104 258q-44 16-99 30.5t-106 20.5q23 31 47 47t36 22q21 12 81 12 54-8 108.5-15.5T1543 1592q27 3 54.5 2t56.5 1q64 6 124 33 18 9 32.5 17t32.5 28l-98 159q-18-18-50.5-27.5t-52.5-9.5q-13 0-26.5-2t-30.5 0l-280 39q-60 9-111.5-8t-84.5-45q-33-27-52.5-46.5T1024 1656Zm67-113h-32q0 66 30.5 112.5t65.5 72.5q55 40 161 40 26 0 102-11 62-10 100-14.5t51-7.5q38-5 80 2 16 4 35.5 7.5t32.5 15.5l48-78q-41-21-87-29-76-13-133-6-17 2-44.5 10t-74.5 15q-101 16-107 16-39 0-68-10t-52-22q-53-24-108-113Z"/>
				</g>
				<g transform="translate(0 6144)">
					<path d="M1209 1774h547q-1 0 2-54.5t3-117.5q1-125 0-258.5t-36-266.5q-34-128-75-218.5T1561 702q-72-108-196-183t-259-98q9 49 8 96-2 36-34 36-37 0-33-36 3-132-94-226-76 80-82 186-2 35-36 31-32-1-32-37l2-8q-41 13-86 37-29 20-47-10t16-47q43-22 65-33-86-88-196-142 12 139 76 263 17 26-8 46-28 22-47-7-7-10-20-36-21 21-28 31-7 9-24.5 40T480 656q-9 25-7.5 40.5T475 731q-9 59-40.5 111T354 969q-47 72-72 108t-38 92q-9 34 0 82.5t39 75.5q46 47 89 43 14 0 37.5-11t36.5-42q26-57 43-57 25 0 27 28 0 6-16 50-9 20-24 42-19 26-17 22 16 57 53 20 11-11 25-41t44-81q35-59 75-96t71-60q18-13 44-30t70-35q35-14 77.5-34.5T994 992q46-45 71-111 13-37 10-91-9-34 34-34 32 0 36 33 0 113-64 206 21 64 11 140-9 61-42.5 130.5T914 1420q-207 172-196 354h491Z" style="fill:#fff"/>
					<path d="M697 689q13 20 10 42-10 64-71 54-18-3-29-12-4 5-12 22-11 32-42 22-31-12-24-45 45-115 163-158 34-10 45 20 12 32-18 44l-11 5.5-11 5.5Zm-297 477q-29 18-35 48 1 33-31 36-35 4-36-30 4-66 59-105 26-21 48 4 22 27-5 47Zm679-815q157 10 291 81t228 182q66 78 124.5 188t93.5 233q40 143 50.5 300.5T1877 1627v218H647q-9 0-8.5-49t6.5-79q4-24 19-68t50-107q16-32 76-93.5T928 1306q45-46 70.5-116t21.5-127q-37 30-81 49-212 76-307 220-7 9-45 81-20 38-34 52-19 19-55 21-56 3-87-54-42 12-75 10-56-21-81-45-51-51-66.5-102T173 1185q0-84 104-222 122-159 130-242 0-36 7-81 6-31 25-60 13-20 17.5-27.5T473 530q9-12 15-18.5t15-17.5q11-13 28-30-53-146-43-301 199 71 334 223 33-113 130-183 80 56 127 148Zm130 1423h547q-1 0 2-54.5t3-117.5q1-125 0-258.5t-36-266.5q-34-128-75-218.5T1561 702q-72-108-196-183t-259-98q9 49 8 96-2 36-34 36-37 0-33-36 3-132-94-226-76 80-82 186-2 35-36 31-32-1-32-37l2-8q-41 13-86 37-29 20-47-10t16-47q43-22 65-33-86-88-196-142 12 139 76 263 17 26-8 46-28 22-47-7-7-10-20-36-21 21-28 31-7 9-24.5 40T480 656q-9 25-7.5 40.5T475 731q-9 59-40.5 111T354 969q-47 72-72 108t-38 92q-9 34 0 82.5t39 75.5q46 47 89 43 14 0 37.5-11t36.5-42q26-57 43-57 25 0 27 28 0 6-16 50-9 20-24 42-19 26-17 22 16 57 53 20 11-11 25-41t44-81q35-59 75-96t71-60q18-13 44-30t70-35q35-14 77.5-34.5T994 992q46-45 71-111 13-37 10-91-9-34 34-34 32 0 36 33 0 113-64 206 21 64 11 140-9 61-42.5 130.5T914 1420q-207 172-196 354h491Z"/>
				</g>
				<g transform="translate(0 8192)">
					<path d="M1161 205v137h170V205h274v375l-222 171v478l170 170v205h153v239H341v-239h153v-205l171-170V751L443 580V205h273v137h171V205h274Z" style="fill:#fff"/>
					<path d="M1161 205v137h170V205h274v375l-222 171v478l170 170v205h153v239H341v-239h153v-205l171-170V751L443 580V205h273v137h171V205h274Zm478 1570v-103H409v103h1230Zm-155-171v-136H564v136h920Zm-170-375V751H734v478h580ZM512 512h1024V273h-137v137h-308V273H956v137H649V273H512v239Zm76 887h871l-103-102H693l-105 102Zm112-716h649l127-103H572l128 103Z"/>
				</g>
				<g transform="translate(0 10240)">
					<path d="M1564 1843H484q-40-100-40-209 0-185 105-332t270-210q-71-33-115.5-99.5T659 842q0-105 70-182t172-89q-81-61-81-161 0-84 59.5-144t144.5-60q84 0 144 60t60 144q0 100-81 161 102 12 172 89t70 182q0 84-45.5 150.5T1228 1092q165 63 270 210t105 332q0 108-39 209Z" style="fill:#fff"/>
					<path d="M533 1775h982q21-72 21-141 0-156-86.5-283T1227 1164q-66-5-66-72 0-53 67-78 93-65 93-172 0-77-52-135t-126-67q-60-5-60-68 0-28 22-52 54-42 54-110 0-56-40-96t-95-40q-57 0-96.5 40T888 410q0 67 54 110 22 22 22 52 0 63-59 68-75 9-126.5 67T727 842q0 107 93 172 67 26 67 78 0 67-67 72-136 60-222 187t-86 283q0 74 21 141Zm1031 68H484q-40-100-40-209 0-185 105-332t270-210q-71-33-115.5-99.5T659 842q0-105 70-182t172-89q-81-61-81-161 0-84 59.5-144t144.5-60q84 0 144 60t60 144q0 100-81 161 102 12 172 89t70 182q0 84-45.5 150.5T1228 1092q165 63 270 210t105 332q0 108-39 209Z"/>
				</g>
				<g transform="translate(0 12288)">
					<circle cx="1024" cy="1024" r="455" style="fill:#fff" />
				</g>
				<g transform="translate(0 14336)">
					<path style="fill:#fff" d="M682.66665 591.64446a91.02222 91.02222 0 0 0-64.35551 26.66668 91.02222 91.02222 0 0 0 0 128.71107l682.66666 682.66669a91.02222 91.02222 0 0 0 128.7111 0 91.02222 91.02222 0 0 0 0-128.7111L747.02221 618.31114a91.02222 91.02222 0 0 0-64.35556-26.66668z" />
					<path style="fill:#fff" d="M1365.3334 591.64446a91.02222 91.02222 0 0 0-64.3556 26.66668L618.31114 1300.9778a91.02222 91.02222 0 0 0 0 128.7111 91.02222 91.02222 0 0 0 128.71107 0l682.66669-682.66669a91.02222 91.02222 0 0 0 0-128.71107 91.02222 91.02222 0 0 0-64.3555-26.66668z"/>
				</g>
			</g>
			<use href="#White" xlink:href="#White" x="2048" y="0" />
			<use href="#Black" xlink:href="#Black" x="4096" y="0" style="opacity:0.5" />
		</g>
		<use href="#Assets" xlink:href="#Assets" x="6144" y="0" />
		<use href="#Assets" xlink:href="#Assets" x="12288" y="0" />
	</g>
</svg>