<svg xmlns="http://www.w3.org/2000/svg"
	xmlns:xlink="http://www.w3.org/1999/xlink" width="900" height="800">
	<g transform="scale(1)">
		<rect width="300" height="800" style="fill:#D18B47" />
		<rect width="300" height="800" x="300" style="fill:#FFCE9E" />
		<g id="Assets">
			<g id="Black">
				<g transform="translate(0 0)">
					<path d="M49.09802 12.31372h-4.70588c-1.09803 0-1.41176.47059-1.41176 1.01961 0 .39218.31373.86274 1.41176.86274h4.70588v7.37256c-4.39215 1.0196-6.11764 6.03921-6.11764 10.35293 0 1.88236.70589 5.96078 1.33333 8-1.09804-1.0196-12.78431-10.74509-19.21568-10.74509-7.13725 0-12.47059 4.54902-12.47059 12.31372 0 7.68627 8.15686 13.01961 10.98039 20.2353.70589 6.98038.70589 7.68627.70589 8.39215l-.39216 11.92157c6.19607 3.29412 13.96078 6.35294 25.96078 6.35294s20-3.05882 26.19608-6.35294l-.47059-11.92157c0-.70588 0-1.41177.70588-8.39215 2.82353-7.21569 11.05883-12.54903 11.05883-20.2353 0-7.7647-6.19609-12.15686-12.4706-12.15686-6.90195 0-14.66666 6.19608-19.37254 10.58823.54902-2.03922 1.49019-6.03921 1.49019-7.92156 0-4.31373-1.72548-9.41177-6.11764-10.43137v-7.37256h4.70588c1.09804 0 1.41176-.47059 1.41176-.86274 0-.54902-.31372-1.01961-1.41176-1.01961h-4.70588v-2.2745c0-1.17648-.39218-1.41177-.94118-1.41177-.47059 0-.86275.23527-.86275 1.41177z" style="fill:#fff;stroke:none;"/>
					<path d="M48.47058 11.68627h-5.33334c-1.2549 0-1.56862 1.01961-1.56862 1.4902 0 .54901.31372 1.49019 1.56862 1.49019h5.33334v5.56863c-4.54902.94118-6.90196 6.27451-6.90196 10.7451 0 2.03921.23529 4.31372.86275 6.43137-1.09805-1.09804-11.92158-9.17647-18.66668-9.17647-7.45097 0-13.17647 4.62746-13.17647 12.86274 0 8.2353 8.70589 13.7255 11.60785 21.33334.70588 7.37254.78431 8.07843.78431 8.86275l-.47059 11.92156c6.58824 3.45098 18.35295 6.82353 27.37255 6.82353 9.01961 0 21.01961-3.37255 27.60785-6.82353l-.4706-11.92156c0-.78432 0-1.49021.70589-8.86275 2.90196-7.60784 11.68627-13.09804 11.68627-21.33334 0-8.23528-6.58824-12.78431-13.17647-12.78431-7.21568 0-13.96078 4.39216-18.82353 9.09804.54902-2.11765 1.01961-4.31373 1.01961-6.27451 0-4.54902-2.35294-9.96078-6.90196-10.90196v-5.56863h5.33334c1.2549 0 1.56862-.94118 1.56862-1.49019 0-.47059-.31372-1.4902-1.56862-1.4902H51.5294V8c0-1.17647-1.0196-1.4902-1.56863-1.4902-.47059 0-1.49019.31373-1.49019 1.4902zm1.49019 34.58823c-1.64706-4.86274-4.07843-9.80392-4.07843-14.90196 0-2.90196 1.25491-6.27451 4.07843-6.27451 2.90196 0 4 3.37255 4 6.27451 0 5.09804-2.35294 10.03922-4 14.90196zM29.17646 73.72548c0-.86274 0-1.33333 1.4902-2.03921 5.2549-2.35294 12.15685-4.07843 19.29411-4.07843 7.21568 0 14.11765 1.72549 19.37255 4.07843 1.4902.70588 1.4902 1.17647 1.4902 2.03921 0 .78432-1.2549.94118-1.4902.94118-1.01961 0-7.84313-4.23529-19.37255-4.23529-11.45098 0-18.27451 4.23529-19.29411 4.23529-.2353 0-1.4902-.15686-1.4902-.94118zm20.78431-22.19607c-2.66666-6.50981-6.03921-12.94118-6.03921-20.15687 0-4.07843 1.96078-8.86274 6.03921-8.86274 4.15686 0 6.11765 4.78431 6.11765 8.86274 0 7.21569-3.37255 13.64706-6.11765 20.15687zm-5.33333 2.5098c0-5.33333-10.7451-19.13726-20.39216-19.13726-3.52941 0-6.7451 2.90196-6.7451 7.21569 0 4.47059 7.13726 9.96079 8.39216 14.11765 5.49019-1.41176 13.09804-2.19608 18.7451-2.19608zm3.37255 2.66667c-7.52941 0-16.2353 1.09804-23.60784 3.05882-1.80392-5.88236-10.27451-11.76471-10.27451-18.66667 0-5.88235 4.86274-9.49019 9.64705-9.49019 11.45098 0 24.2353 13.72549 24.2353 25.09804zm7.37254-2.66667c5.64707 0 13.25491.78432 18.74511 2.19608 1.2549-4.15686 8.39215-9.64706 8.39215-14.11765 0-4.31373-3.21568-7.21569-6.7451-7.21569-9.64705 0-20.39216 13.80393-20.39216 19.13726zm-3.37254 2.66667c0-11.37255 12.78431-25.09804 24.23529-25.09804 4.78431 0 9.64705 3.60784 9.64705 9.49019 0 6.90196-8.47058 12.78431-10.2745 18.66667-7.37255-1.96078-16.07843-3.05882-23.60784-3.05882Zm-23.76471 24c0-.78432 0-1.33333 1.49019-2.03922 5.17648-2.35295 13.09804-5.09804 20.2353-5.09804 7.21568 0 15.13725 2.74509 20.31372 5.09804 1.4902.70589 1.4902 1.2549 1.4902 2.03922 0 .78431-1.17647 1.0196-1.4902 1.0196-.94117 0-8.7843-5.33333-20.31372-5.33333-11.45098 0-19.29411 5.33333-20.2353 5.33333-.31371 0-1.49019-.23529-1.49019-1.0196zm.15686-16.47059c0-.86275 0-1.33333 1.4902-2.03922 5.2549-2.43137 12.94117-3.60785 20.07843-3.60785 7.21568 0 14.90197 1.17648 20.15686 3.60785 1.4902.70589 1.4902 1.17647 1.4902 2.03922 0 .78431-1.17647.94117-1.4902.94117-1.0196 0-8.62744-3.7647-20.15686-3.7647-11.45098 0-19.05882 3.7647-20.07843 3.7647-.31372 0-1.4902-.15686-1.4902-.94117z" style="fill:#000;stroke:none;"/>
				</g>
				<g transform="translate(0 100)">
					<path d="M22.54202 60.72378c.55336 2.29208-.48766 3.41033 1.74704 4.41099 1.54992 1.03427 2.14803 2.9471 2.71757 4.63103.96805 2.92753.95767 6.16646-.15472 9.05242-.49029 1.34898-1.19175 2.62251-2.08043 3.75014 3.0678 1.33957 6.4524 1.68065 9.74445 2.07986 7.12168.73162 14.39948.82114 21.48602.64084 5.4458-.20964 10.9437-.44011 16.26694-1.6965 1.02807-.27017 2.06082-.5745 2.99674-1.08865-2.7198-3.29852-3.69076-7.94659-2.45003-12.04726.55492-1.8361 1.12696-3.861 2.63688-5.1502-19.80042-8.9451-30.4055-8.32544-52.91046-4.58267z" style="fill:#fff;stroke:none;"/>
					<path d="M23.99999 16.86274c0 3.45099 2.66666 6.27451 5.96078 6.43138l-1.64706 31.84313h-.0784L15.76473 29.56863c2.11765-1.09804 3.60784-3.29412 3.60784-5.80392 0-3.45098-2.90196-6.35295-6.35294-6.35295-3.52941 0-6.43137 2.90197-6.43137 6.35295 0 3.5294 2.90196 6.43137 6.43137 6.43137h.78431l3.76471 29.56862c.86275 3.13725 2.82353 5.64706 5.64706 7.05883 1.01961.47058 2.5098 4.54902 2.5098 7.21568 0 2.58824-.94117 5.33333-2.58823 7.37255-.31373.47058-.86275.86274-.86275 1.41177 0 .15686.15686.47058.31373.70587 3.84314 3.45098 21.01961 3.84314 27.29411 3.84314 5.64706 0 24-.15686 27.52942-4 .15686-.15686.31372-.39215.31372-.54901 0-.54903-.39219-.94119-.70588-1.33334-1.80393-2.11765-2.7451-4.70589-2.7451-7.45098 0-2.5098 1.4902-6.7451 2.5098-7.21568 2.82353-1.41177 5.17647-3.92158 5.64706-7.05883l3.68627-29.56862h.78432c3.52941 0 6.43137-2.90197 6.43137-6.43137 0-3.45098-2.90196-6.35295-6.43137-6.35295-3.52941 0-6.43137 2.90197-6.43137 6.35295 0 2.66666 1.49019 4.86274 3.60784 5.80392L71.76472 55.13725h-.0784l-1.72549-31.84313c3.37255-.15687 6.03921-2.98039 6.03921-6.43138 0-3.45098-2.90196-6.35294-6.43137-6.35294-3.45098 0-6.35294 2.90196-6.35294 6.35294 0 2.7451 1.64706 5.17648 4.07844 6.03922L57.01965 53.33333h-.15686l-5.4902-33.72549c2.82354-.62745 5.01961-3.21569 5.01961-6.19608 0-3.52941-2.90196-6.43137-6.43137-6.43137-3.45099 0-6.35294 2.90196-6.35294 6.43137 0 3.05883 2.27451 5.80392 5.17647 6.27451l-5.8039 33.64706-10.35293-30.43137c2.35293-.86274 4.15685-3.29412 4.15685-6.03922 0-3.45098-2.90195-6.35294-6.35294-6.35294-3.52941 0-6.43137 2.90196-6.43137 6.35294zm4.31372 65.64706c-.54901 0-1.41176-.39216-1.41176-1.17647 0-.86275.31373-1.25491 1.41176-1.72549 1.80393-.78432 8.31373-2.90196 21.64707-2.90196 13.41175 0 19.92156 2.11764 21.72548 2.90196 1.09805.47058 1.41176.86274 1.41176 1.72549 0 .78431-.86274 1.17647-1.41176 1.17647-1.41176 0-4.70588-2.98039-21.72548-2.98039-16.94119 0-20.2353 2.98039-21.64707 2.98039zm-.70587-15.68627c0-.78432.62744-1.33333 1.17646-1.64706 3.13726-1.41176 11.45099-3.84314 21.17648-3.84314 9.80392 0 18.11765 2.43138 21.2549 3.84314.54901.31373 1.17647.86274 1.17647 1.64706 0 .78431-.86275 1.09803-1.17647 1.09803-2.11765 0-8.2353-3.84314-21.2549-3.84314-12.94118 0-19.05883 3.84314-21.17648 3.84314-.31372 0-1.17646-.31372-1.17646-1.09803zm3.60784 8.94117c-.54902 0-1.33334-.2353-1.33334-1.09804 0-.78432.62746-1.17646 1.33334-1.56862 3.29411-1.80393 10.98039-3.92158 18.58823-3.92158 7.60784 0 15.68627 2.11765 18.98039 3.92158.70589.39216 1.33333.7843 1.33333 1.56862 0 .86274-.78431 1.09804-1.33333 1.09804-1.64706 0-8-3.76471-18.82352-3.76471-10.7451 0-17.09804 3.76471-18.7451 3.76471z" style="fill:#000;stroke:none;"/>
				</g>
				<g transform="translate(0 200)">
					<path d="M29.31084 45.43864c8.43213 9.66903 7.5437 14.93397 6.204 23.65672 8.8781 4.48252 21.90462 4.92479 30.50588-1.4981-5.35495-10.6681-4.04177-13.96062 2.98125-21.50306-23.54406-30.37331-20.67321-25.39185-39.69113-.65556Z" style="fill:#fff;stroke:none;"/>
					<path d="m41.80392 61.80391-1.4902-2.43137c2.98039-1.64706 6.19608-2.74509 9.64706-2.74509 3.52941 0 6.82353 1.09803 9.72549 2.74509l-1.4902 2.43137c-2.50981-1.56863-5.33333-2.43137-8.23529-2.43137-2.82353 0-5.7255.86274-8.15686 2.43137zM38.19607 68c2.90196-3.13726 7.37255-4.70588 11.76471-4.70588 4.47058 0 8.94117 1.56862 11.84313 4.70588l-1.4902 2.11764c-2.58823-2.58823-6.58823-4-10.43136-4-3.76471 0-7.60784 1.41177-10.19608 4zm8-44.70589C38.5098 28.78431 28 34.43137 28 45.17647c0 4.39215 2.43137 9.33333 5.96078 11.92156.54901.39216.70588.39216.86274.78432-1.41176 6.11764-2.11764 9.41176-2.11764 9.49019 0 3.29412 8.07843 4.94118 11.29412 5.4902-1.41178 1.01961-4.39217 1.64706-7.76472 1.64706-1.96077 0-5.33332-.23529-9.2549-.23529-3.60784 0-7.37254 2.0392-10.50979 3.99999-1.2549.94118-3.76471 2.58824-3.76471 3.84314 0 2.66667 5.2549 6.90196 6.58823 6.90196 2.90196-1.2549 5.33334-3.29411 8.39216-4.23529 4.62745-1.2549 9.41176-.4706 14.11765-1.2549 2.11765-.31373 6.82353-1.4902 8.15686-2.66667 3.99999 2.35294 6.11764 2.35294 8.23529 2.66667 4.78432.70587 9.4902 0 14.11765 1.2549 3.05882.94118 5.49019 2.98039 8.39216 4.23529 1.2549 0 6.58823-4.23529 6.58823-6.90196 0-1.2549-2.50981-2.90196-3.76471-3.84314-3.05882-2.03922-6.90196-3.99999-10.50981-3.99999-3.92156 0-7.29411.23529-9.25489.23529-3.37255 0-6.35295-.70588-7.76471-1.72549 3.21569-.54902 11.29412-2.11765 11.29412-5.41177 0-.0784-.70589-3.37255-2.11765-9.49019.15686-.39216.31373-.39216.78432-.78432 3.60784-2.58823 6.03921-7.52941 6.03921-11.92156 0-10.7451-10.5098-16.39216-18.19608-21.88236 1.72549-1.2549 2.90197-3.21569 2.90197-5.72549 0-3.45098-3.21569-6.58823-6.7451-6.58823-3.45098 0-6.66667 3.13725-6.66667 6.58823 0 2.5098 1.17647 4.47059 2.90196 5.72549zm5.41177 29.33333c0 1.09805-.31373 2.19609-1.64706 2.19609-1.2549 0-1.64706-1.09804-1.64706-2.19609v-9.49019h-8.31373c-1.09803 0-2.19608-.47059-2.19608-1.72549 0-1.33333 1.09805-1.72549 2.19608-1.72549h8.31373v-8.31373c0-1.09804.39216-2.19607 1.64706-2.19607 1.33333 0 1.72549 1.09803 1.72549 2.19607v8.31373H60c1.09803 0 2.19607.39219 2.19607 1.72549 0 1.2549-1.09804 1.72549-2.19607 1.72549h-8.39216z" style="fill:#000;stroke:none;"/>
				</g>
				<g transform="translate(0 300)">
					<path d="M22.43993 66.34436c.15686 2.03922.81565 2.1376 2.14898 2.1376 3.37255 0 4.82284-7.38393 8.27382-10.44275 3.60784-3.21568 13.2549-7.45098 17.33333-10.43138.54761 6.50981-.54045 13.03958-2.42279 16.49056-1.80393 3.13725-4.47917 6.44992-6.59682 8.80287-2.19607 2.35293-5.01103 2.72654-5.01103 13.23634l49.56006.1369c0-9.09803-3.55795-31.55935-8.26384-42.4613-3.37254-8-6.89339-11.913-10.81495-14.6581-6.03922-4.07842-11.66631-6.01784-17.15651-6.88059-1.72549-3.05883-3.04884-7.0802-3.99001-8.25666-1.88236 1.33333-5.28485 6.22602-6.22603 6.22602-1.72549 0-6.73652-4.92122-9.79534-5.47024l.93119 9.50018c-.54901 3.7647-7.17576 4.6488-7.17576 10.139 0 3.7647-.0014 5.73407-.39358 6.67524-2.58823 6.11765-9.74262 10.99038-9.74262 18.12763 0 1.88235 1.18503 4.1868 2.59681 5.59857 1.56862 1.88234 4.31372 1.37325 6.7451 1.5301z" style="fill:#fff;stroke:none"/>
					<path d="M39.76469 18.66666c-.15687.23528-.39216.54902-.62745.54902-.31372 0-1.01961-.39218-1.01961-.39218l-9.80392-5.80392c0 3.45098.70588 7.68628.70588 10.66667-1.33333 3.21568-4.78431 5.09804-6.43137 7.68627-.39216.70588-.47059 1.41176-.47059 2.19608 0 1.2549.0784 2.19607.0784 3.05882 0 1.56863-.62744 3.60784-1.09803 4.78432-2.50981 6.19607-8.86275 11.05882-8.86275 18.19607 0 4.39218 3.45098 7.76473 7.84313 7.76473.39216 0 .78432 0 1.25491-.0784-.15686.2353-.15686.94117-.15686 1.09804 0 .62745.78431 1.72549 1.96078 1.72549.94118 0 2.03921-.31373 2.82353-1.01961 3.45098-2.82352 4-7.68627 7.45098-10.58824 4.70588-4.07842 11.05882-5.33332 15.7647-9.49019.2353 1.80392.31373 3.29412.31373 5.01961 0 3.45098-1.56863 8.39216-3.76471 11.84314-3.84313 5.80392-10.82353 9.49019-10.82353 17.33333 0 1.17647.0784 2.5098.31373 3.68628h51.29411c0-12.62745-2.19608-25.41177-6.19607-37.41177-2.19608-6.58824-5.01961-13.2549-9.88236-18.35295-3.45098-3.60783-7.84313-6.35294-12.62745-7.84313 0 0-4.39215-1.17647-6.82353-1.17647-.31372 0-.70587 0-.86274-.23526-.31372-.15687-.39216-.54903-.62745-.86275-1.80392-4.00003-2.66667-6.35297-3.92156-8.54905zm7.92157 6.90196c0-.70587.62745-1.2549 1.33333-1.2549 6.35294 0 13.88236 3.37255 18.58824 7.76471 4.78431 4.54901 7.29411 9.72549 9.49019 15.92156 2.58823 7.13726 4.31372 14.58824 5.33334 22.03922.47058 3.45098.86274 9.56862.86274 13.09804 0 .62745-.62746 1.33333-1.33333 1.33333-.62746 0-1.33333-.70588-1.33333-1.33333-.23528-2.66667-.62746-9.64706-1.09805-13.09804-1.0196-7.45098-2.19607-13.17647-5.09803-21.2549-2.11765-5.96079-4.4706-10.58824-8.54902-14.58823-4.39216-4.31373-11.37255-7.05883-17.01961-7.21569-.47059 0-1.17647-.54902-1.17647-1.41177zM25.72548 39.37254c1.64705-2.5098 2.98039-6.58823 5.96078-7.29411.70588 0 1.17647.23526 1.80392.39218-1.41176 3.29411-4.31372 5.96079-7.7647 6.90196zm-10.5098 22.66667c-.0784-.62745-.0784-1.33333-.0784-1.80393 0-2.11764 1.2549-4.31372 2.7451-4.31372 1.0196 0 1.80392.94118 1.80392 1.88236 0 2.11765-4 3.60784-4.47058 4.23529z" style="fill:#000;stroke:none"/>
				</g>
				<g transform="translate(0 400)">
					<path d="M67.7647 63.13725V36l9.41177-8.39216V14.66666h-7.522v5.09804H55.7647v-5.09804H44.23529v5.09804H30.34553v-5.09804h-7.522v12.94118L32 36.07843v27.05882l-8 8.39215v8.70589h-5.01961v7.29411h61.88235v-7.29411h-4.94117v-8.94118z" style="fill:#fff;stroke:none"/>
					<path d="M22.11764 78.2745h-4.70588v10.19608h65.17646V78.2745h-4.78431v-7.13725c-2.03921-2.03922-5.09803-5.64706-8.07843-8.62745V36.62744c4-3.52941 9.4902-6.82353 9.4902-7.84313V13.17647H67.92157v5.72548H57.41176v-5.72548h-14.7451v5.72548H32.23529v-5.72548H20.70588v15.68627c3.68628 2.82353 5.4902 3.92157 9.49019 7.45098V62.5098c-2.98039 2.98039-6.11764 6.5098-8.07843 8.47059zm49.2549 1.01961c1.72549 0 3.45098 0 3.45098 1.72548 0 1.64706-1.72549 1.64706-3.45098 1.64706H28.47058c-1.64706 0-3.37255 0-3.37255-1.64706 0-1.72548 1.72549-1.72548 3.37255-1.72548zm-1.96078-8.31372c1.72549 0 3.37255 0 3.37255 1.72549s-1.64706 1.72549-3.37255 1.72549H30.5098c-1.72549 0-3.37255 0-3.37255-1.72549s1.64706-1.72549 3.37255-1.72549zm-8-8.47059c1.72549 0 3.37255 0 3.37255 1.72549 0 1.64706-1.64706 1.64706-3.37255 1.64706H38.5098c-1.72549 0-3.37255 0-3.37255-1.64706 0-1.72549 1.64706-1.72549 3.37255-1.72549zm0-29.33334c1.72549 0 3.37255 0 3.37255 1.72549s-1.64706 1.72549-3.37255 1.72549H38.5098c-1.72549 0-3.37255 0-3.37255-1.72549s1.64706-1.72549 3.37255-1.72549zm8-7.7647c1.72549 0 3.37255 0 3.37255 1.72549 0 1.64706-1.64706 1.64706-3.37255 1.64706H30.5098c-1.72549 0-3.37255 0-3.37255-1.64706 0-1.72549 1.64706-1.72549 3.37255-1.72549z" style="fill:#000;stroke:none"/>
				</g>
				<g transform="translate(0 500)">
					<path d="M42.11764 29.17647c-5.7255 1.64706-9.41177 7.5294-9.41177 13.09804 0 4.15685 1.88235 8.54902 5.41176 11.05882-10.11764 4.47058-16.54901 14.98039-16.54901 25.96078 0 1.4902.15685 2.90196.39215 4.39216.47059 1.41176.54902 2.82352 1.56863 2.82352h52.94117c1.01961 0 1.09805-1.41176 1.49019-2.82352.4706-1.4902.4706-2.98039.4706-4.47059 0-10.90196-6.50981-21.4902-16.54903-25.88235 3.52942-2.5098 5.41177-6.90197 5.41177-11.05882 0-5.56864-3.68628-11.45098-9.41176-13.09804 1.49019-1.64706 2.43137-3.84313 2.43137-6.19608 0-5.64705-4.94118-9.41176-10.35294-9.41176-5.56863 0-10.27451 3.92156-10.27451 9.64706 0 2.2745 1.01961 4.31372 2.43138 5.96078z" style="fill:#000;stroke:none;"/>
				</g>
				<g transform="translate(0 600)">
					<circle cx="50" cy="50" r="22.222221" style="fill:#000;stroke:none;" />
				</g>
				<g transform="translate(0 700)">
					<path style="fill:#000;stroke:none" d="m 33.333333,28.888889 a 4.4444444,4.4444444 0 0 0 -3.14236,1.302084 4.4444444,4.4444444 0 0 0 0,6.28472 l 33.333331,33.333333 a 4.4444444,4.4444444 0 0 0 6.284722,0 4.4444444,4.4444444 0 0 0 0,-6.284722 L 36.475693,30.190973 a 4.4444444,4.4444444 0 0 0 -3.14236,-1.302084 z" />
					<path style="fill:#000;stroke:none" d="m 66.666666,28.888889 a 4.4444444,4.4444444 0 0 0 -3.142362,1.302084 L 30.190973,63.524304 a 4.4444444,4.4444444 0 0 0 0,6.284722 4.4444444,4.4444444 0 0 0 6.28472,0 L 69.809026,36.475693 a 4.4444444,4.4444444 0 0 0 0,-6.28472 4.4444444,4.4444444 0 0 0 -3.14236,-1.302084 z" />
				</g>
			</g>
			<g id="White" transform="translate(100 0)">
				<g transform="translate(0 0)">
					<path d="M49.09802 12.31372h-4.70588c-1.09803 0-1.41176.47058-1.41176 1.01961 0 .39218.31373.86275 1.41176.86275h4.70588v7.37254c-4.39215 1.01961-6.11764 6.03921-6.11764 10.35294 0 1.88235.70589 5.96079 1.33333 8-1.09804-1.01961-12.78431-10.7451-19.21568-10.7451-7.13725 0-12.47059 4.54902-12.47059 12.31372 0 7.68629 8.15686 13.01961 10.98039 20.2353.70589 6.9804.70589 7.68627.70589 8.39216l-.39216 11.92156c6.19607 3.29412 13.96078 6.35294 25.96078 6.35294s20-3.05882 26.19608-6.35294l-.47059-11.92156c0-.70589 0-1.41176.70588-8.39216 2.82353-7.21569 11.05883-12.54901 11.05883-20.2353 0-7.7647-6.19609-12.15685-12.4706-12.15685-6.90195 0-14.66666 6.19607-19.37254 10.58823.54902-2.03921 1.49019-6.03922 1.49019-7.92157 0-4.31372-1.72548-9.41176-6.11764-10.43137v-7.37254h4.70588c1.09804 0 1.41176-.47059 1.41176-.86275 0-.54903-.31372-1.01961-1.41176-1.01961h-4.70588v-2.27451c0-1.17647-.39218-1.41176-.94118-1.41176-.47059 0-.86275.23526-.86275 1.41176z" style="fill:#fff;stroke:none"/>
					<path d="M48.47058 11.68627h-5.33334c-1.2549 0-1.56862 1.0196-1.56862 1.49019 0 .54903.31372 1.4902 1.56862 1.4902h5.33334v5.56863c-4.54902.94117-6.90196 6.27451-6.90196 10.74509 0 2.03922.23529 4.31373.86275 6.43138-1.09805-1.09804-11.92158-9.17647-18.66668-9.17647-7.45097 0-13.17647 4.62745-13.17647 12.86274 0 8.2353 8.70589 13.72549 11.60785 21.33333.70588 7.37255.78431 8.07843.78431 8.86275l-.47059 11.92156c6.58824 3.45098 18.35295 6.82353 27.37255 6.82353 9.01961 0 21.01961-3.37255 27.60785-6.82353l-.4706-11.92156c0-.78432 0-1.4902.70589-8.86275 2.90196-7.60784 11.68627-13.09803 11.68627-21.33333 0-8.23529-6.58824-12.78431-13.17647-12.78431-7.21568 0-13.96078 4.39216-18.82353 9.09804.54902-2.11765 1.01961-4.31373 1.01961-6.27451 0-4.54902-2.35294-9.96079-6.90196-10.90196v-5.56863h5.33334c1.2549 0 1.56862-.94117 1.56862-1.4902 0-.47059-.31372-1.49019-1.56862-1.49019H51.5294V7.99999c0-1.17647-1.0196-1.4902-1.56863-1.4902-.47059 0-1.49019.31373-1.49019 1.4902zm1.49019 37.09804c-1.96078-5.80392-4.94117-11.68628-4.94117-17.64706 0-3.52942 1.41176-7.52941 4.86274-7.52941 3.45098 0 5.09804 3.99999 5.09804 7.52941 0 5.96078-3.05882 11.84314-5.01961 17.64706zm-1.49019 7.92156c-7.45099 0-15.68627 1.09804-23.05883 3.05883h-.23529c-3.60784-5.88235-9.96078-11.52942-11.05882-18.66667.39215-5.88236 4.86274-9.49019 9.64705-9.49019 8.2353 0 18.7451 8.47058 22.11765 16.39215 1.25491 2.82353 2.03922 5.4902 2.58824 8.70588zm3.05882 0c.54902-3.21568 1.33333-5.88235 2.58823-8.70588 3.37255-7.92157 13.88236-16.39215 22.11765-16.39215 4.78431 0 9.17647 4.39215 9.56862 9.49019-1.09803 8-7.29411 12.39216-10.98039 18.66667h-.23526c-7.37258-1.96079-15.60787-3.05883-23.05885-3.05883Zm22.19608 12.47059c-7.60784-2.19607-15.52941-3.7647-23.76471-3.7647-8.15686 0-16.07843 1.56863-23.68627 3.7647l-.39216-5.96078c7.60784-2.19608 16.70588-3.13726 24.07843-3.13726 7.45098 0 16.54903.94118 24.15687 3.13726zm-47.52941 3.68628c7.60784-2.19609 15.37255-4.00001 23.7647-4.00001 8.47059 0 16.47059 1.80392 24 4.00001l.23527 3.21568c-5.8039-1.96078-15.99997-3.84314-24.23527-3.84314-8.15686 0-17.96078 1.88236-23.99999 3.84314zm23.7647 13.72548c-5.72549 0-19.29411-1.72549-24.15686-5.01961l.0784-2.03921c.0784-.86275 15.92157-3.92157 24.07843-3.92157 8.2353 0 24.2353 2.98039 24.31373 3.76471l.15686 1.80392c-5.80392 3.68627-19.21568 5.41176-24.47059 5.41176z" style="fill:#000;stroke:none"/>
				</g>
				<g transform="translate(0 100)">
					<path d="M24.47058 17.88234c0 3.45098 2.66667 4.70588 5.96078 4.94118l-1.33333 32.54902H27.5294L15.37254 29.09803c2.11765-1.09804 3.52941-1.80393 3.52941-4.31373 0-3.45098-2.43137-5.41177-5.88235-5.41177-3.52941 0-5.88235 1.96079-5.88235 5.41177 0 2.7451 3.13726 4.94118 5.88235 4.94118h1.2549l3.92157 30.03921c.78431 3.13726 2.19608 5.64707 5.01961 7.05883 1.01961.47058 2.5098 4.54902 2.5098 7.21568 0 2.58824-.94117 5.33334-2.58823 7.37255-.31373.47059-.86275.86274-.86275 1.41177 0 .15686.15686.47058.31373.70587 3.84314 3.45099 21.01961 3.84315 27.29411 3.84315 5.64706 0 24-.15687 27.52942-4.00001.15686-.15686.31372-.39215.31372-.54901 0-.54903-.39219-.94118-.70588-1.33333-1.80393-2.11765-2.7451-4.7059-2.7451-7.45099 0-2.5098 1.4902-6.7451 2.5098-7.21568 2.82353-1.41176 4.70588-3.92157 5.09804-7.05883l3.68628-30.03921h1.33333c2.66666 0 5.88235-2.19608 5.88235-4.94118 0-3.45098-2.35294-5.41177-5.88235-5.41177s-5.88236 1.96079-5.88236 5.41177c0 2.58823 1.49021 3.29412 3.60785 4.31373L72.70587 55.37254h-1.72549l-1.2549-32.54902c3.29411-.23527 5.80392-1.4902 5.80392-4.94118 0-3.45098-2.43138-5.41176-5.96078-5.41176-3.45098 0-5.88236 1.96078-5.88236 5.41176 0 2.74509 1.72549 3.60785 4.07844 4.54902L57.33332 53.88234h-.94117l-5.01961-34.7451c2.82353-.62745 4.54902-1.72549 4.54902-4.70588 0-3.52941-2.43137-5.41176-5.96078-5.41176-3.45099 0-5.88235 1.88235-5.88235 5.41176 0 3.05882 1.80391 4.2353 4.70588 4.78431l-5.41177 34.66667h-.78432L31.99999 22.43136c2.43138-.94117 4.31372-1.80393 4.31372-4.54902 0-3.45098-2.43136-5.41176-5.88235-5.41176-3.52941 0-5.96078 1.96078-5.96078 5.41176z" style="fill:#fff;stroke:none;"/>
					<path d="M42.50979 47.92155c-.39215-1.0196-8.39215-24.23528-8.39215-24.23528 1.96079-1.01962 2.98039-3.21569 2.98039-5.41177 0-3.45098-2.82353-6.7451-6.43137-6.7451-3.84314 0-6.9804 2.74509-6.9804 6.66667 0 2.82352 2.03922 5.56863 4.70589 6.43137l-1.4902 25.17647h-.0784l-9.2549-19.29412c1.0196-1.64706 2.11765-3.29412 2.11765-5.33333 0-3.68627-3.21569-6.66667-6.82353-6.66667-3.68628 0-6.43137 3.29412-6.43137 6.66667 0 3.21569 2.35294 6.35294 5.80391 6.58824 3.45098 28.15686 3.52942 29.96078 4.2353 31.60784.70588 1.80392 1.96079 3.29411 3.29412 4.54901.70588.54903 1.72549.94118 2.35294 1.64706 1.17646 1.41177 1.88235 3.92158 1.88235 5.72549 0 2.19608-.39216 3.60784-1.09803 4.78431-.78432 1.41178-2.27452 2.74511-2.27452 3.92158 0 6.2745 22.58824 6.5098 29.33334 6.5098 6.82353 0 29.56862-.2353 29.56862-6.5098 0-1.17647-1.64706-2.5098-2.43137-3.92158-.70589-1.17647-1.09804-3.05882-1.09804-4.78431 0-1.88235.70588-4.31372 1.88235-5.72549.62745-.70588 1.64706-1.09803 2.35294-1.64706 2.7451-2.43136 4.23529-6.11764 4.23529-10.03921l3.29412-26.11764c3.45098-.23528 5.80393-3.37255 5.80393-6.58824 0-3.45098-2.74511-6.66667-6.43137-6.66667-3.60785 0-6.82354 2.9804-6.82354 6.66667 0 2.43137 1.09804 3.60784 2.19609 5.33333-3.92158 8-7.29413 14.66667-9.33334 19.29412h-.0784L71.6079 24.62744c2.66667-.86274 4.70588-3.60785 4.70588-6.43137 0-3.92158-2.98039-6.66667-6.90195-6.66667-3.60785 0-6.50981 3.13725-6.50981 6.66667 0 2.19608 1.01961 4.47058 2.98039 5.4902l-8.39216 24.23528c-4.15685-24.31371-4.15685-24.23528-4.70588-27.05882 1.80393-.78431 3.92158-3.13725 3.92158-6.03921 0-1.64706-.62746-3.21569-1.56863-4.39216-1.33334-1.56862-3.21569-2.35294-5.17647-2.35294-3.52942 0-6.66667 3.05882-6.66667 6.7451 0 2.66666 1.80392 5.09804 3.84314 6.35294-.31373 2.03922-4.62746 26.74509-4.62746 26.74509zm7.45099-29.80391c-1.64706 0-3.29412-1.64706-3.29412-3.29412 0-1.72549 1.64706-3.29412 3.29412-3.29412 1.72549 0 3.37255 1.56863 3.37255 3.29412 0 1.64706-1.64706 3.29412-3.37255 3.29412zm-22.82353 0c0-1.7255 1.56862-3.21569 3.29411-3.21569 1.64706 0 3.29412 1.72549 3.29412 3.37255 0 1.72549-1.64706 3.21569-3.29412 3.21569-1.72549 0-3.29411-1.7255-3.29411-3.37255zm39.13725.0784c0-1.80393 1.64706-3.29412 3.29412-3.29412 1.41176 0 3.29412 1.17647 3.29412 3.29412 0 2.11764-1.49021 3.29411-3.29412 3.29411-1.80392 0-3.29412-1.72549-3.29412-3.29411zm-53.2549 3.68624c1.64706 0 3.29412 1.64706 3.29412 3.29412 0 1.72549-1.64706 3.29412-3.29412 3.29412-1.72549 0-3.29412-1.56863-3.29412-3.29412 0-1.64706 1.56863-3.29412 3.29412-3.29412zm70.66666 3.29412c0-1.80392 1.64706-3.29412 3.29412-3.29412 1.41177 0 3.29412 1.41177 3.29412 3.29412 0 2.19607-1.64706 3.29412-3.29412 3.29412-1.96078-.0785-3.29412-1.56863-3.29412-3.29412zM15.99999 35.29404l9.72549 20.00001-4.15686-.39216c-1.25491 0-2.19608 1.17646-2.90196 1.88235zm62.66667 19.60785c-1.64706.0784-2.66667.31372-4.39216.31372l9.64706-19.92157-1.96079 21.56863c-1.72549-.0784-2.27451-1.88235-3.29411-1.96078zm-33.4902-2.5098 4.78432-27.60785h.15686l4.70588 27.60785c-1.01961-.39216-2.03922-1.01962-2.82353-1.56863-.62745-.54902-1.17647-1.25491-2.03921-1.25491-.78432 0-1.33334.70589-1.96079 1.25491-.78431.54901-1.80392 1.17647-2.82353 1.56863zm-15.05882 1.80392 1.49019-27.29412 9.09805 26.43137c-1.17648 0-2.50981-.2353-3.60785-.62746-.70589-.31371-1.49019-.94117-2.27451-.94117-.94117.15687-1.4902.70589-2.11764 1.09804-.78432.54902-1.72549 1.01961-2.58824 1.33334zm29.17647-.86275 9.09803-26.5098 1.4902 27.37255c-.86274-.31373-1.80391-.78432-2.58823-1.33334-.62746-.39215-1.17647-.94117-1.88236-1.09804-1.0196 0-1.80392.62746-2.5098.94117-1.09804.39216-2.43138.62746-3.60784.62746zm-39.92157 7.52941c.62746-.94117 1.64706-1.72549 2.7451-2.35294h3.37255c6.58823-.0784 8.07843-2.90196 9.49019-2.90196.62746 0 3.60785 1.09804 5.80393 1.09804 3.92156 0 6.98038-1.72549 7.92157-2.43137.7843-.47059 1.0196-.47059 1.2549-.47059.47059 0 .70587.31373 1.0196.47059 2.50981 1.4902 5.2549 2.43137 8.15686 2.43137 1.33333 0 5.88235-1.01961 5.64707-1.17647 3.29412 1.56863 5.80391 2.7451 9.33333 3.05882.47058 0 2.19607-.15686 3.05882-.15686 1.41176 0 3.13725 1.64706 3.45098 2.74509-.54902 2.35295-2.03922 4.00001-3.92157 4.86275-8.94117-2.35294-17.72549-3.60785-26.74509-3.60785-8.86275 0-21.7255 1.96079-26.58824 3.60785-2.19608-1.0196-4-2.90196-4-5.17647zm6.43137 8c9.17647-2.03921 15.37255-2.98039 24.15687-2.98039 8.86274 0 12.31372.39216 24.23529 2.98039l-1.4902 4.86274c-7.29412-2.35293-14.90196-3.45097-22.74509-3.45097-7.68628 0-15.37256 1.09804-22.66667 3.45097zm1.72549 8.47059c7.05882-2.5098 14.90197-3.60785 22.43138-3.60785 7.60784 0 17.17646 1.56863 22.5098 3.60785l1.0196 2.98039c-7.68627-1.17647-15.68627-1.4902-23.5294-1.4902-7.76471 0-15.76471.31373-23.45099 1.4902zm-2.82352 6.90196c8-1.80392 16.47058-2.03922 25.2549-2.03922 8.86274 0 16.86274.0784 25.33333 2.03922-8.07844 2.66666-16.86274 2.90196-25.33333 2.90196-8.47059 0-17.17647-.31373-25.2549-2.90196z" style="fill:#000;stroke:none;"/>
				</g>
				<g transform="translate(0 200)">
					<path d="M49.73438 12.98828c-2.75006.19143-5.09884 3.1106-4.29167 5.84587.32314 1.66192 1.70599 2.7456 3.00428 3.67122.23475.36446 1.5564.75378.7939 1.09544-4.42485 3.22287-9.17718 6.03233-13.23736 9.72909-3.04833 2.76776-5.62982 6.41304-5.94899 10.63306-.3643 4.1635 1.48579 8.42993 4.62541 11.15382.8128.60867 1.77593 1.1539 2.08493 2.19835.3383.65128-.18735 1.3933-.23686 2.08527-.59172 2.68432-1.27957 5.38282-1.7702 8.06835 1.09765 1.22911 2.78808 1.68215 4.29659 2.2048.96815.30237 1.96054.54758 2.84572.7419 2.4467.51087 4.91422.91715 7.3694 1.38533-1.81478 1.11961-3.50938 2.45003-5.41016 3.41992-4.07445 1.70314-8.58794 1.26117-12.88916 1.12779-1.55459-.03717-3.11534-.11997-4.72787-.0343-3.26668.36698-6.18807 2.07572-8.9099 3.80871-.88515.68914-1.91961 1.30348-2.58244 2.19936.81669 1.80852 2.40334 3.1573 3.99451 4.2826.39855.51422.8505.0136 1.2689-.16916 2.8768-1.59408 5.6915-3.5482 9.03151-3.99625 3.44783-.5975 6.90976-.37293 10.34603-.63687 2.98903-.27058 5.97627-.93048 8.73112-2.13554.61813-.3071 1.11557-.8016 1.67676-1.19634 2.29227 1.3747 4.733 2.67077 7.44323 2.9113 2.88031.48594 5.7753.50868 8.65207.59108 3.51123.09911 7.15073.48707 10.24542 2.28646 1.5786.82677 3.06706 1.8188 4.66904 2.60179 1.7516-1.11837 3.42816-2.54502 4.39258-4.41602.06301-.47757-.6472-.77379-.94152-1.11373-2.83819-2.24272-6.06058-4.20291-9.65144-4.90939-1.45227-.25898-3.07366-.10386-4.4484-.11036-4.29.08622-8.7154.65417-12.87485-.72277-2.17222-.6729-3.8889-2.24313-5.8073-3.39905-.92466-.42778-.60015-.59925.25423-.662 4.12201-.8308 8.43383-1.20801 12.25444-3.09051.43866-.2976 1.14328-.56512 1.25786-1.1098-.68456-3.23028-1.43575-6.44623-2.16997-9.6656.3135-.92102.91477-1.69574 1.74317-2.20764 3.2693-2.4839 5.24626-6.61119 5.1748-10.71227-.0638-3.95983-2.14807-7.59056-4.88901-10.33503-4.08999-4.1284-9.17029-7.0498-13.83865-10.4518-.64437-.3445-1.08666-.69363-.19965-1.07315 1.37833-1.06814 3.05865-2.0877 3.46074-3.92468.6541-2.033-.44508-4.27623-2.2517-5.29855-.75375-.46926-1.6502-.71976-2.53955-.6707z" style="fill:#fff;stroke:none"/>
					<path d="M46.19606 23.29411c-7.68627 5.49019-18.19607 11.13726-18.19607 21.88235 0 4.39215 2.43137 9.33333 5.96078 11.92157.54901.39216.70588.39216.86274.78431-1.41176 6.11765-2.11764 9.41176-2.11764 9.4902 0 3.29411 8.07843 4.94117 11.29412 5.4902-1.41178 1.0196-4.39217 1.64706-7.76472 1.64706-1.96077 0-5.33332-.2353-9.25489-.2353-3.60785 0-7.37255 2.03922-10.5098 4-1.2549.94118-3.76471 2.58824-3.76471 3.84314 0 2.66666 5.2549 6.90196 6.58823 6.90196 2.90196-1.2549 5.33334-3.29412 8.39216-4.2353 4.62745-1.2549 9.41176-.47058 14.11765-1.2549 2.11765-.31373 6.82353-1.4902 8.15686-2.66666 3.99999 2.35293 6.11764 2.35293 8.23529 2.66666 4.78432.70589 9.4902 0 14.11765 1.2549 3.05882.94118 5.49019 2.9804 8.39216 4.2353 1.2549 0 6.58823-4.2353 6.58823-6.90196 0-1.2549-2.50981-2.90196-3.76471-3.84314-3.05882-2.03921-6.90196-4-10.5098-4-3.92157 0-7.29412.2353-9.2549.2353-3.37255 0-6.35294-.70589-7.76471-1.7255 3.21569-.54902 11.29412-2.11765 11.29412-5.41176 0-.0784-.70589-3.37255-2.11765-9.4902.15686-.39215.31373-.39215.78432-.78431 3.60784-2.58824 6.03921-7.52942 6.03921-11.92157 0-10.74509-10.5098-16.39216-18.19608-21.88235 1.72549-1.2549 2.90197-3.21568 2.90197-5.72549 0-3.45097-3.21569-6.58823-6.7451-6.58823-3.45098 0-6.66667 3.13726-6.66667 6.58823 0 2.50981 1.17647 4.47059 2.90196 5.72549zm3.76471-2.90196c-.2353 0-.62746.23527-1.09804.23527-1.4902-.23527-2.19608-1.96079-2.19608-3.05882 0-1.80393 1.64706-3.13726 3.29412-3.13726 1.72549 0 3.21569 1.33333 3.21569 3.13726 0 1.09803-.70589 2.90196-1.96079 3.05882zm-1.64706 19.29412h-8.31373c-1.09803 0-2.19608.39218-2.19608 1.72549 0 1.2549 1.09805 1.72548 2.19608 1.72548h8.31373v9.49021c-2.35295.47058-6.82353.23528-11.13725 2.2745-.70589 0-1.17647-.62744-1.64706-1.0196-2.82353-2.27452-4.15687-5.80393-4.15687-9.41177 0-9.17647 10.7451-13.64706 16.94118-18.58824.39216-.31372 1.09804-1.17646 1.64706-1.17646.62744 0 1.33333.86274 1.72549 1.17646 6.19608 4.94118 16.94117 9.41177 16.94117 18.58824 0 3.60784-1.33333 7.13725-4.15686 9.41177-.47059.39216-1.09804 1.0196-1.80392 1.0196-4.23529-2.03922-8.78432-1.80392-11.05882-2.2745v-9.49021h8.39216c1.09803 0 2.19607-.47058 2.19607-1.72548 0-1.33334-1.09804-1.72549-2.19607-1.72549h-8.31373v-8.31373c0-1.09804-.39218-2.19608-1.72549-2.19608-1.2549 0-1.64706 1.09804-1.64706 2.19608zm14.82353 24.39215c-4.15687-1.80391-8.62745-2.7451-13.17647-2.7451-4.47059 0-9.09804.94119-13.09804 2.7451 1.2549-4.70588 1.2549-5.49019 1.72549-5.88235 2.19608-2.19608 8.62745-2.19608 11.37255-2.19608 2.5098 0 10.43137 1.17647 11.45098 2.19608zm-25.25491 3.29412v-.0784c3.92158-1.56862 7.84314-2.58823 12.07844-2.58823 4.15686 0 8.31373.86274 12.15686 2.58823-3.60784 1.80393-7.92157 2.74511-12.15686 2.74511-4.15687 0-8.15686-.86275-12.07844-2.66667zM16.7843 82.19607c4.70589-2.82353 5.80392-4.86275 14.90196-4.86275 2.03921 0 5.33333.47059 7.60784.47059 2.03921 0 5.01961-.70588 6.82353-2.27451 1.2549-1.2549 1.88235-2.11764 3.84314-2.11764 2.03922 0 2.66666.86274 3.92156 2.11764 1.80392 1.56863 4.78432 2.27451 6.82353 2.27451 2.27452 0 5.56864-.47059 7.60784-.47059 9.09805 0 10.19609 2.03922 14.90197 4.86275-2.19609 2.19608-2.5098 2.58823-2.90196 2.58823h-.0784c-3.84311-2.11764-7.92154-3.92156-12.3137-4.07843-5.33333-.31373-10.82353.31373-15.52941-2.5098-.78431-.47059-1.41177-1.17648-2.43137-1.17648-.94118 0-1.72549.70589-2.58824 1.17648-4.54902 2.90196-9.96078 2.19607-15.29411 2.5098-4.39216.15687-8.47059 1.96079-12.31373 4.07843z" style="fill:#000;stroke:none"/>
				</g>
				<g transform="translate(0 300)">
					<path d="M21.96078 66.82352c.15686 2.03921 1.56862 2.2745 2.90196 2.2745 3.37255 0 4.54902-8 8.00001-11.05882 3.60783-3.21569 13.25489-7.45098 17.33333-10.43137 0 6.50981-1.01962 13.17647-2.90196 16.62745-1.80393 3.13725-4.00001 6.03922-6.11766 8.39216-2.19607 2.35294-5.49019 3.13725-5.49019 13.64706h50.03922c0-9.09805-3.21569-31.76471-7.92158-42.66667-3.37254-8-7.37254-12.39215-11.29411-15.13725-6.03922-4.07844-11.52941-5.33334-17.01961-6.19609-1.72549-3.05882-2.98039-7.7647-3.92156-8.94117-1.88236 1.33333-5.4902 6.43137-6.43138 6.43137-1.72549 0-7.21569-4.78431-10.27451-5.33333l.86274 9.56862c-.54901 3.76471-6.90195 5.33334-6.90195 10.82354 0 3.7647-.54902 5.2549-.94118 6.19608-2.58824 6.11764-8.78431 11.05882-8.78431 18.19607 0 1.88235.70587 4.39216 2.11765 5.80393 1.56863 1.88235 4.31372 1.64705 6.74509 1.80392z" style="fill:#fff;stroke:none;"/>
					<path d="M20.31372 69.33332c.39216 1.64706 2.11765 2.58824 3.60784 2.58824 6.19608 0 7.37255-7.84315 10.7451-11.29412 3.76471-4 9.56863-5.09804 13.80393-8.31373 0 5.56863-1.2549 10.19608-4.39216 14.11765-1.96079 2.66666-4.94118 4.70588-6.7451 7.60784-1.80392 2.82353-3.76471 3.76471-3.76471 14.7451h55.21569c0-9.4902-2.50981-33.96079-7.37255-45.41177-3.60785-8.39215-7.13725-13.09804-11.21569-15.84313C63.92156 23.21568 57.96078 20.47058 52 20.47058c-1.80392-3.13725-4.00001-9.33334-5.4902-9.33334-1.88236 0-6.11765 6.03922-7.13726 6.03922-.94117 0-9.17647-5.64706-10.74509-5.64706-.94118 0-1.33334 1.17647-1.33334 1.96079L28 22.82352c-.47059 4-6.98039 5.4902-6.98039 11.29411 0 4.00001-.2353 5.56864-.62746 6.50981-2.66666 6.5098-9.17647 11.68627-9.17647 19.13725 0 2.03922.70589 4.62745 2.19609 6.11765 1.72549 2.03921 4.31372 3.29411 6.90195 3.45098zm10.58824-53.01961 5.17647 3.21569-4.78432 1.96079zm-4.62745 23.37256c3.60784-1.17648 6.5098-3.45099 7.92157-7.05883-.39216-.2353-.78432-.39216-1.33333-.39216-3.37255 0-4.62746 4.86274-6.58824 7.45099zm19.60783-24c1.09805 2.43137 2.43138 5.64705 3.84315 7.92157 15.7647 1.72549 24.23529 9.09803 29.80391 25.09803 2.19608 6.43137 5.33334 31.68627 5.33334 36.70588H37.33333c0-8.31373 4-10.98039 8.54901-15.60784 4.07844-4.07844 6.03923-11.92157 6.03923-15.37255 0-2.90196-.23528-3.45098-.23528-3.84314 0-1.01961 1.17648-1.72549 1.80392-2.35294 1.64706-2.03921 2.58825-4.86275 2.58825-7.52941-.15687-1.88235-.4706-3.60785-1.96079-3.60785-1.01962 0-1.4902.78432-1.64706 1.56863 0 7.21569-1.56863 8.15686-6.35294 11.05882-4.31373 2.66668-9.33333 4.39217-13.2549 7.76472-1.2549 1.17647-2.27452 2.5098-3.05883 3.99999-1.49022 2.58823-3.21571 6.9804-5.88238 6.9804.31373-1.4902 1.80393-2.58824 2.27452-4.15687 0-1.17647-.78432-1.88236-1.72549-1.88236-1.88236 0-2.27452 3.45099-4.2353 3.45099-4.23529-1.4902-5.64706-3.7647-5.64706-6.27451.54903-6.03922 4.78432-9.80392 7.52941-14.7451 1.88236-3.37255 2.35295-4.78431 2.35295-10.2745 0-3.45099 2.43136-4.15687 4.54901-6.50981 1.4902-1.96079 1.80393-2.58824 2.35294-2.90196 0 0 7.92157-3.37255 9.33334-4.07843.70588-.31373 3.37255-3.60785 5.17646-5.41176zM15.7647 62.11764c1.72549-1.41177 4.62745-1.88236 4.62745-4.07844 0-1.0196-.78431-1.96079-1.96078-1.96079-2.66667.62746-2.66667 3.84315-2.66667 6.03923z" style="fill:#000;stroke:none;"/>
				</g>
				<g transform="translate(0 400)">
					<path d="M67.76469 63.13724V35.99999l9.41176-8.39216V14.66665h-9.41176v5.09804h-12v-5.09804H44.23527v5.09804H32.23528v-5.09804h-9.41176v12.94118l9.17646 8.47059v27.05882l-8 8.39216v8.70588h-5.0196v7.29412h61.88235v-7.29412h-4.94118V71.2941Z" style="fill:#fff;stroke:none;"/>
					<path d="M22.11763 78.2745h-4.70588v10.19607h65.17647V78.2745H77.8039v-7.13726l-8.07842-8.62745V36.62744l9.49019-7.84314V13.17646H64.86273v5.72549h-6.43137v-5.72549H41.72547v5.72549h-6.5098v-5.72549h-14.5098v15.68627l9.49019 7.45099v26.19607l-8.07843 8.47059zm1.96079-52.2353v-9.41176h7.68627v5.64705h13.33333v-5.64705h9.72549v5.64705H68.3137v-5.64705h7.45099v9.41176zm3.45098 3.45098v-.0784h44.86274l-5.09804 3.68627H32.70587Zm6.03921 32.07843V36.62744H66.2745v24.94117zm-5.80392 8.62746 5.01961-5.09804h34.35294l4.94117 5.09804zm-2.27451 8.07843v-4.70589h48.94118v4.70589zm-4.70588 7.13725v-3.68628h58.43137v3.68628z" style="fill:#000;stroke:none;"/>
				</g>
				<g transform="translate(0 500)">
					<path d="M44.47058 30.03921c-5.56862 1.56863-10.03921 7.13725-10.03921 12.62745 0 3.84313 2.7451 8.15686 6.03921 10.5098-9.64705 4.2353-17.64705 14.35294-17.64705 24.94118 0 1.4902.0784 2.90196.39216 4.31372.39214 1.33333.39214 2.58823 1.41176 2.58823h50.74509c.94117 0 1.0196-1.2549 1.41176-2.58823.39218-1.41176.39218-2.90196.39218-4.39215 0-10.50981-8.07843-20.70588-17.64706-24.86275 3.29412-2.35294 6.03923-6.66667 6.03923-10.5098 0-5.4902-4.4706-11.05882-10.03922-12.62745 1.4902-1.64706 3.37255-3.84314 3.37255-5.96079 0-5.49019-3.76471-8.94117-8.94118-8.94117-5.2549 0-8.86274 3.68628-8.86274 9.17647 0 2.11765 2.03922 4.07843 3.37255 5.72549z" style="fill:#fff;stroke:none;"/>
					<path d="M42.11764 29.17646c-5.72549 1.64706-9.41176 7.52941-9.41176 13.09804 0 4.15686 1.88234 8.54902 5.41176 11.05882C28 57.80391 21.56863 68.31372 21.56863 79.29411c0 1.49019.15685 2.90196.39215 4.39215.47059 1.41177.54902 2.82353 1.56862 2.82353h52.94118c1.01961 0 1.09804-1.41176 1.49019-2.82353.47059-1.49019.47059-2.98039.47059-4.47058 0-10.90196-6.5098-21.4902-16.54902-25.88236 3.52941-2.5098 5.41177-6.90196 5.41177-11.05882 0-5.56863-3.68628-11.45098-9.41176-13.09804 1.49019-1.64706 2.43136-3.84313 2.43136-6.19608 0-5.64705-4.94117-9.41176-10.35293-9.41176-5.56863 0-10.27451 3.92156-10.27451 9.64706 0 2.2745 1.01961 4.31372 2.43137 5.96078zm32.54901 54.03921H25.33333c-.2353-1.41176-.31373-2.90196-.31373-4.31372 0-9.88235 6.27451-19.21569 15.37255-22.90196 1.09804-.39215 2.82353-.70588 3.29412-1.80392.0784-.15686.0784-.39216.0784-.62745 0-1.17647-.94118-1.56863-1.96078-1.96079-3.52942-1.80392-5.80392-5.33332-5.80392-9.33333 0-5.56863 4.31372-9.96078 9.56862-10.5098 1.09804-.0785 2.66667-.39219 2.66667-1.64706 0-1.33334-1.33333-1.80392-2.35295-2.19608-1.64706-.70588-2.74509-3.13725-2.74509-5.2549 0-3.52942 3.76471-5.64706 6.82353-5.64706 3.52941 0 6.90196 2.27451 6.90196 5.96078 0 1.88236-1.09804 4.2353-2.7451 4.94118-1.01961.39218-2.35294 1.09804-2.35294 2.19608 0 1.2549 1.64706 1.56863 2.7451 1.64706 5.09804.94118 9.49019 4.94117 9.49019 10.5098 0 4.00001-2.19608 7.52941-5.33334 9.01961-.94117.47059-2.43136 1.01961-2.43136 2.19608 0 .23529 0 .39216.0784.62745.39219 1.17647 2.11765 1.41177 3.21568 1.88235 9.17648 3.37255 15.45099 13.17647 15.45099 22.90196 0 1.41176-.0784 2.90196-.31373 4.31372z" style="fill:#000;stroke:none;"/>
				</g>
				<g transform="translate(0 600)">
					<circle cx="50" cy="50" r="22.222221" style="fill:#fff;stroke:none;" />
				</g>
				<g transform="translate(0 700)">
					<path style="fill:#fff;stroke:none" d="m 33.333333,28.888889 a 4.4444444,4.4444444 0 0 0 -3.14236,1.302084 4.4444444,4.4444444 0 0 0 0,6.28472 l 33.333331,33.333333 a 4.4444444,4.4444444 0 0 0 6.284722,0 4.4444444,4.4444444 0 0 0 0,-6.284722 L 36.475693,30.190973 a 4.4444444,4.4444444 0 0 0 -3.14236,-1.302084 z" />
					<path style="fill:#fff;stroke:none" d="m 66.666666,28.888889 a 4.4444444,4.4444444 0 0 0 -3.142362,1.302084 L 30.190973,63.524304 a 4.4444444,4.4444444 0 0 0 0,6.284722 4.4444444,4.4444444 0 0 0 6.28472,0 L 69.809026,36.475693 a 4.4444444,4.4444444 0 0 0 0,-6.28472 4.4444444,4.4444444 0 0 0 -3.14236,-1.302084 z" />
				</g>
			</g>
			<use href="#White" xlink:href="#White" x="100" y="0" />
			<use href="#Black" xlink:href="#Black" x="200" y="0" style="opacity:0.5" />
		</g>
		<use href="#Assets" xlink:href="#Assets" x="300" y="0" />
		<use href="#Assets" xlink:href="#Assets" x="600" y="0" />
	</g>
</svg>